<?xml version="1.0" standalone="no"?>
<!DOCTYPE svg PUBLIC "-//W3C//DTD SVG 1.1//EN" "http://www.w3.org/Graphics/SVG/1.1/DTD/svg11.dtd" >
<svg xmlns="http://www.w3.org/2000/svg">
<metadata>Generated by IcoMoon</metadata>
<defs>
<font id="icomoon" horiz-adv-x="1024">
<font-face units-per-em="1024" ascent="960" descent="-64" />
<missing-glyph horiz-adv-x="1024" />
<glyph unicode="&#x20;" horiz-adv-x="512" d="" />
<glyph unicode="&#xe900;" glyph-name="announcement" d="M42.803 300.749l63.898-159.949 581.018-7.987-234.496 599.45zM956.826 575.181c-34.611 87.859-98.714 157.082-183.706 194.56-72.090 31.949-149.094 37.478-223.846 18.637l15.974-72.090c58.778 15.974 122.47 10.65 178.586-15.974 66.56-29.286 120.013-85.402 143.77-151.962 24.166-69.222 24.166-143.77-5.325-210.534-24.166-58.778-69.222-103.834-125.338-133.325l37.478-66.56c69.222 37.478 125.338 93.389 157.082 167.936 37.478 85.197 39.936 181.453 5.325 269.312zM783.565 505.958c-15.974 39.936-47.923 72.090-85.402 87.859-34.611 15.974-72.090 15.974-106.701 5.325l15.974-72.090c18.637 5.325 39.936 5.325 58.778-2.662 21.299-10.65 37.478-24.166 42.598-47.923 15.974-42.598-2.662-90.522-47.923-109.158l37.478-66.56c79.872 39.936 111.821 127.795 85.197 205.21z" />
<glyph unicode="&#xe901;" glyph-name="applogo" d="M525.517 443.494v0 0 0zM495.411 446.157v0c-2.458 0-5.12 0-5.12-2.458v0 0 0c0-2.458-2.458-2.458-5.12-2.458 0-2.458-2.458-2.458-2.458-2.458 5.12-0.205 7.578 2.253 12.698 7.373 0-2.662-2.662 0 0 0zM517.939 458.65c-2.458 0-2.458-2.458-5.12-2.458 0-2.458 0 0-2.458-2.458h2.458c0.205 2.458 2.662 4.915 5.12 4.915zM731.75 506.368c2.458 0 2.458-5.12 2.458-5.12 2.662 2.662 0.205 2.662-2.458 5.12 2.458 2.458 0 2.458 0 5.12-2.458 0 0 5.12-2.458 5.12 0-2.458 0-2.458 0-5.12 2.458 0 2.458-2.458 2.458-5.12zM500.326 433.459v0c2.458 0 2.458 5.12 7.578 2.458 0 2.458 5.12 0 5.12 0-2.458 2.458 0 2.458 0 2.458s2.458 0 0 0v0c0 2.458 2.458 2.458 5.12 2.458v0c0 0 0 0 2.458 0 2.458 2.458 5.12 2.458 7.578 5.12 0 0 0 0-2.458 0s-2.458 2.458-5.12 2.458v-2.458c0 0 0-5.12-2.458-2.458 0-2.458-2.458-2.458-2.458-2.458-2.458-2.458-2.458-2.458-5.12-2.458v2.458h-2.662c-2.458-2.458-4.915-2.458-7.578-7.578-2.458 2.458-2.458 0 0 0-2.458-2.458-2.458-2.458 0 0-2.458-2.458-5.12-2.458-7.578-2.458s-2.458-2.458-5.12-2.458c0-2.458-2.458-2.458-2.458-5.12s2.458-2.458 2.458-2.458c2.458 2.458 2.458 2.458 5.12 5.12 5.12 4.915 5.12 7.373 7.578 7.373zM978.33 297.677c-2.458 0 0 2.458 0 0-2.458 5.12-5.12 2.458-5.12 5.12 0 0-2.458 2.458-2.458 0 0 0-2.458 0-2.458 2.458-5.12 0-7.578 2.458-10.035 5.12 0 2.458-2.458 2.458-2.458 5.12v0 0h2.458c0 0 2.458 0 2.458-2.458 2.458 0 5.12 0 5.12 0 5.12 0 7.578-2.458 12.493-2.458v0c-2.458 0-5.12 2.458-7.578 5.12-2.458 0 0 2.458-2.458 5.12-2.458 0-2.458 2.458-5.12 2.458 0 0-2.458 0-2.458 2.458h-4.915c-2.458 2.458-7.578 2.458-7.578 5.12-2.458 0-2.458 0-5.12 2.458l-2.458 2.458c-5.12 0-7.578 2.458-10.035 5.12 0 2.458-2.458 0-2.458 2.458h-5.12c-2.458 2.458-7.578 2.458-12.493 5.12-2.458 0-2.458 0-5.12 2.458-2.458 0-5.12 2.458-7.578 5.12-2.458 0-2.458 2.458-5.12 2.458-2.458 2.458-5.12 2.458-7.578 2.458s-2.458 2.458-5.12 2.458c0 2.458-2.458 0-2.458 2.458v0 0c-2.458 2.458-5.12 2.458-5.12 5.12-5.12 0-7.578 2.458-10.035 5.12-2.458 0-2.458 2.458-5.12 2.458 0 2.458-2.458 2.458-2.458 2.458-2.458 2.458-5.12 2.458-7.578 5.12-2.458 2.458-5.12 2.458-7.578 5.12 0 0-2.458 0-2.458 2.458h-2.458c0 2.458-2.458 0-2.458 2.458s-2.458 2.458-2.458 2.458v0 0c0 0 0 0-2.458 0s-2.458 2.458-5.12 2.458c0 2.458-2.458 2.458-2.458 5.12-2.458 0-2.458 2.458-5.12 2.458 0 0 0 2.458-2.458 2.458 0 2.458-2.458 2.458-5.12 5.12 0 0 0 2.458 0 0v0 0 0c-2.458 0-2.458 2.458-2.458 2.458 0 2.458-2.458 2.458-2.458 5.12v0c0 2.458-2.458 0-2.458 2.458v0 0c-2.458 0 0 2.458-2.458 2.458-2.458 2.458-7.578 5.12-7.578 7.578-2.458 0-2.458 2.458-5.12 2.458 0 0 0 2.458 0 0 0 2.458-5.12 2.458-2.458 5.12-2.458 0-2.458 2.458-2.458 2.458-2.458 0-2.458 2.458-2.458 2.458-2.458 0-2.458 2.458-5.12 5.12 0 2.458-2.458 0-5.12 2.458 0 2.458-2.458 2.458-5.12 2.458-2.458 2.458-5.12 2.458-7.578 5.12 0 2.458-2.458 2.458-5.12 2.458s-5.12 2.458-5.12 2.458 0 2.458-2.458 2.458v0c-2.458 0-2.458 2.458-2.458 2.458 0 2.458-5.12 2.458-5.12 7.578-2.458 0 0 2.458-2.458 2.458s0 5.12-2.458 7.578c-2.458 0 0 5.12-2.458 5.12v0c0 2.458-2.458 5.12-5.12 5.12 0-2.458-2.458-2.458-2.458-2.458-2.458 0-2.458 2.458-2.458 2.458-2.458 0-2.458 2.458-2.458 2.458v0c0 0 0 2.458-2.458 2.458 0 2.458 0 5.12-2.458 7.578-2.458 0 0 2.458-2.458 2.458v0c0 2.458-2.458 2.458-2.458 5.12-2.458 0 0 2.458-2.458 2.458v2.458c0 0-2.458 0-2.458 2.458 0 0 0 0-2.458 0-2.458 2.458-5.12 2.458-7.578 5.12-5.12 0-7.578 2.458-10.035 0v0c-5.12-2.458-10.035-2.458-17.613-2.458v0c-5.12 0-10.035 0-12.493 2.458 0 0-2.458-2.458-2.458 0-2.458 0-7.578 0-7.578-2.458 2.458 0 2.458 0 5.12-2.458 0 0 2.458 0 2.458-2.458s-2.458-2.458-5.12-5.12c-5.12-2.458-7.578 2.458-12.493 2.458-2.458 2.458-2.458 2.458-5.12 5.12-2.458 0-2.458 2.458-2.458 2.458v0 0 0c-2.458 0-2.458 0-2.458 2.458s-2.458 2.458-2.458 5.12v0 0 0 0c-2.458 0 0 2.458-2.458 2.458 0 0-2.458 0-2.458 2.458v0c0 2.458-2.458 2.458-2.458 5.12-2.458 0-2.458 2.458-2.458 2.458v2.458c0 0 0 2.458-2.458 2.458s-2.458 2.458-2.458 2.458c-2.458 0 0 5.12-2.458 5.12 0 2.458-2.458 2.458-5.12 5.12 0 2.458-2.458 2.458-2.458 5.12 0 0 0 2.458-2.458 2.458 0 2.458-2.458 5.12-5.12 5.12v7.373c2.458 2.458 0 5.12 0 7.578v0-10.035c0 0 0 2.458-2.458 2.458-2.458 2.458-2.458 5.12-5.12 5.12-2.458 2.458-5.12 5.12-7.578 7.578 0 0-2.458 0-2.458 2.458-2.458 0-2.458 0-2.458 2.458s-2.458 2.458-5.12 5.12c-2.458 0-2.458 2.458-5.12 5.12-2.458 0-2.458 2.458-5.12 2.458 0 2.458-2.458 2.458-2.458 2.458v0 0c-2.458 0-5.12 2.458-7.578 2.458 0 2.458-2.458 0-5.12 2.458h-17.613c-2.458 0-5.12-2.458-7.578-2.458 0-2.458-2.458 0-2.458-2.458-2.458 0-5.12-2.458-7.578-2.458v0h20.070c0-2.458-5.12 0-5.12-2.458-5.12 0-7.578-2.458-10.035 0v0c-2.458 0-2.458 0-2.458 0-7.578-2.458-7.578 5.12-12.493 2.458l-2.458 2.458c-5.12 0-5.12 2.458-10.035 2.458 0 2.458-5.12 0-7.578 0-2.458 2.458-10.035 2.458-15.155 2.458h-5.12c-2.458 2.458-5.12 0-5.12 2.458-2.458 0-2.458 0-5.12 0s-2.458 0-5.12 2.458h-5.12c-2.458 0-2.458 0-2.458 0h-15.155c-2.458-2.458-5.12-2.458-5.12-2.458-2.458-2.458-5.12-2.458-7.578-5.12 0-2.458-2.458-2.458-5.12-5.12 0-2.458-2.458 0-2.458-2.458-2.458-2.458-5.12-2.458-5.12-5.12-2.458 0-2.458-2.458-2.458-5.12s-2.458-2.458-2.458-7.578c-2.458 0-2.458-2.458-2.458-2.458v-2.458c-2.458 0 0-5.12-5.12-5.12v0 0 0c0-2.458-2.458-2.458-2.458-5.12-2.458 0-2.458-2.458-2.458-2.458v-4.915c0 10.035 0 7.578 0 5.12v0c0 0 0-2.458-2.458-5.12 0 0 0 0 0-2.458-2.458-2.458-2.458-2.458-2.458-5.12v-2.458c0-2.458-2.458-2.458-2.458-5.12 2.458-2.458-2.458-2.458-2.458-5.12-2.458 0 0-5.12-2.458-5.12 0-2.458 0-2.458-2.458-2.458s0-2.458-2.458-2.458v0c0-2.458 0-2.458-2.458-2.458v0 0c0-2.458-2.458 0-2.458-2.458s-2.458-2.458-2.458-5.12c-2.458-2.458-2.458-5.12-5.12-7.578-2.458 0-5.12-5.12-10.035-5.12 0-5.12-7.578-2.458-10.035-2.458s-5.12 0-7.578-2.458c-2.458 0 0-2.458-2.458-2.458 0-2.458-5.12-2.458-5.12-2.458-2.458 2.458-7.578 0-10.035 0v0c0 0 0 0-2.458 0 0-2.458-5.12 0-7.578-2.458-2.458 0-5.12-2.458-7.578 0 0-2.458-2.458 0-5.12-2.458 0-2.458-5.12-2.458-5.12-2.458 0-2.458-2.458-2.458-5.12-2.458 0-2.458-2.458 0-2.458-2.458-5.12 0-7.578-2.458-7.578-7.578h-2.458c0-5.12-2.458-5.12-5.12-7.578 0-2.458-2.458-2.458-2.458-5.12-2.458-2.458-2.458-5.12-5.12-5.12 0 0 0-2.458-2.458-5.12l-2.458-2.458c0-2.458-2.458 0-2.458-2.458-2.458 0-2.458-2.458-2.458-2.458 0-2.458-2.458 0-2.458-2.458s-2.458-2.458-5.12-5.12c-2.458 0 0-2.458-2.458-2.458s-5.12-2.458-7.578-2.458c0-2.458-2.458 0-5.12-2.458v0c-2.458 0-5.12-2.458-7.578-2.458v0c0 0 0 0-2.458 0v0l-2.458-2.458c-2.458 0-2.458-2.458-7.578-2.458 0-2.458-2.458 0-2.458-2.458-2.458 2.458 0-2.458-5.12-2.458v0c-2.458 0-5.12-2.458-10.035-2.458v0c0 0-2.458-2.458-5.12 0v0h-3.072c0-2.458-2.458-2.458-5.12-2.458 0-2.458-5.12 0-7.578-2.458-2.458 0-2.458-2.458-5.12-2.458v0c0 0 0-2.458-2.458 0 0-2.458-5.12-2.458-5.12-5.12-2.458 0-2.458-2.458-5.12-2.458 0-2.458-2.458-2.458-5.12-2.458v0h-2.458c0-2.458-2.458-2.458-2.458-2.458-2.458 0-2.458-2.458-5.12-5.12-2.458 0-2.458-2.458-2.458-2.458-2.458-2.458-7.578-2.458-10.035-5.12 0-2.458-2.458 0-2.458-2.458-2.458 0-5.12-2.458-7.578-5.12-2.458 0-2.458-2.458-2.458-5.12 0 0-2.458 0 0-2.458 0-2.458-2.458-2.458-5.12-2.458 0-2.458-2.458-2.458-2.458-2.458 0-2.458-2.458 0-2.458-2.458v0 0c0 0 0-2.458 0 0 0-2.458-2.458 0-2.458-2.458h17.613c-2.458 0-2.458-2.458-5.12-5.12 0-2.458-2.458 0 0-2.458-2.458-2.458-2.458-2.458-5.12-5.12-2.458 0 0-2.458-2.458-2.458 0-2.458-2.458-2.458-2.458-5.12-2.458 0 0 0-2.458-2.458 0 0-2.458-2.458-2.458 0 0 0-2.458 0-2.458-2.458 0 0-2.458-2.458-5.12-2.458v0 0c0-2.458-2.458-5.12-2.458-7.578-2.458 0-2.458-2.458-5.12-2.458 2.458-2.458 2.458 2.458 2.458 0 2.458 2.458 5.12 5.12 7.578 5.12v0 0c0 2.458 2.458 2.458 2.458 5.12 2.458 2.458 7.578 0 7.578 2.458 2.458 0 2.458-2.458 2.458-2.458l-2.458-2.458c0 0-2.458 0-2.458-2.458-2.458-2.458-2.458-5.12-5.12-5.12v-2.458c-2.458 0-2.458-2.458-2.458-2.458 2.458 0 2.458 0 2.458 0 2.458 0 2.458 2.458 5.12 0h2.458c0 2.458 2.458 0 5.12 2.458 0-2.458 0-2.458 0-2.458-2.458 0-2.458-2.458-2.458-2.458 0-2.458-2.458-2.458-5.12-2.458 0-2.458-2.458-2.458-2.458-2.458v0 0 0l2.458-2.458c0 0 0-2.458 2.458-2.458v-2.458c0 0 0 2.458 2.458 0v0c5.12 0 7.578 2.458 10.035 2.458 0 2.458 2.458 2.458 5.12 2.458s5.12 0 5.12-2.458c0 0 0-2.458-2.458-2.458 0-2.458-2.458-2.458-2.458-2.458-2.458 0-2.458-2.458-5.12-2.458v0c0 0 0 0-2.458 0v0c0 0 0-2.458-2.458 0 0-2.458-2.458-2.458-2.458-2.458-2.458 0-2.458-2.458-2.458-2.458v0 0h4.915c2.458 0 5.12 2.458 7.578 5.12 0 0 2.458 0 0 0 2.458 0 5.12 2.458 5.12 2.458 2.458 0 2.458 2.458 2.458 2.458l2.458 2.458c2.458 2.458 2.458 5.12 7.578 5.12-2.458 0 0-5.12-2.458-2.458 0-2.458-2.458-2.458-2.458-5.12v-2.458c-2.458 0-2.458-2.458-5.12-5.12 0 0-2.458-2.458 0-2.458v0c0 0 2.458 0 2.458 2.458 0 0 2.458 2.458 2.458 0 0 2.458 2.458 2.458 5.12 2.458v0c0 0 0 0 2.458 0v0 0c0 2.458 2.458 0 2.458 2.458v-2.458c0 0 0-2.458-2.458-2.458 0-2.458-2.458-2.458-2.458-5.12v-2.458c2.458 0 0-2.458 2.458-2.458v0 0c0 2.458 2.458 0 2.458 2.458s2.458 2.458 5.12 2.458 2.458 2.458 5.12 2.458v2.458c2.458 0 0 2.458 2.458 2.458 0 2.458 2.458 0 2.458 5.12 2.458 0 2.458 2.458 5.12 0v-2.458c0-2.458-2.458-2.458-2.458-5.12-2.458 0 0-2.458-2.458-2.458l-2.458-2.458c-2.458 0-2.458-2.458-2.458-5.12-2.458 0 0-2.458-2.458-2.458 0 0 0 0 0-2.458 0 0 2.458 0 2.458 2.458 2.458 2.458 7.578 5.12 10.035 7.578 0 0 0 2.458 2.458 2.458 0 2.458 2.458 2.458 2.458 2.458 0 2.458 0 2.458 0 2.458 0 2.458 0 2.458 2.458 2.458 0 2.458 2.458 0 2.458 2.458h2.458c2.458 2.458 2.458 2.458 5.12 5.12 5.12 0 2.458 5.12 7.578 5.12 0 2.458 2.458 0 2.458 2.458 2.458 0 0 2.458 2.458 2.458 0 2.458 2.458 2.458 2.458 5.12 2.458 0 2.458 2.458 5.12 2.458v0c0 0 0 0 2.458 0 0 2.458 2.458 2.458 2.458 5.12 2.458 0 0 2.458 2.458 2.458 0 2.458 5.12 2.458 5.12 5.12 2.458 0 0 2.458 2.458 2.458v2.458c2.458 0 2.458 2.458 2.458 2.458 2.458 0 2.458 2.458 5.12 2.458v0c0 2.458 0 0 2.458 0 0 2.458 2.458 2.458 2.458 2.458s0 0 2.458 0v0c0 0 0 0 2.458 0v0c0 0 0 2.458 2.458 2.458v0c2.458 0 5.12 5.12 7.578 5.12l2.458 2.458h4.915c2.458 0 2.458 0 2.458 2.458 2.458 0 2.458 2.458 5.12 2.458 0 2.458 5.12 2.458 5.12 2.458 2.458 0 2.458 0 5.12 0 0 0 0 0 0-2.458l2.458 2.458c0 2.458 5.12 2.458 7.578 5.12 0 2.458 2.458 2.458 5.12 2.458v0c2.458 0 2.458 0 5.12 0v0c0 0 0 0 2.458 0v0h2.458c2.458 0 2.458 2.458 7.578 0v0c2.458 0 2.458 2.458 5.12 2.458 0 2.458 2.458 2.458 5.12 2.458s2.458 0 5.12 2.458c2.458 0 2.458 2.458 5.12 2.458 0 0 2.458 0 2.458 2.458 0 0 0 0 2.458 0 0 2.458 5.12 2.458 5.12 5.12 0 0 0 2.458 2.458 2.458v0c2.458 0 0 2.458 5.12 2.458 0 2.458 2.458 2.458 2.458 5.12 2.458 0 2.458 2.458 2.458 2.458v0c0 0 0 2.458 2.458 0 0 2.458 5.12 2.458 5.12 5.12 2.458 0 2.458-2.458 5.12-2.458v0c0 2.458 2.458 2.458 2.458 5.12 0 2.458 2.458 0 2.458 2.458 2.458 0 5.12 0 7.578 0 0-2.458 0-2.458 0-5.12l5.12 2.458c0 0 0 2.458 2.458 2.458 0 2.458 2.458 0 2.458 2.458 2.458 2.458 5.12 5.12 7.578 5.12 0 2.458 2.458 2.458 5.12 2.458 0 2.458 2.458 0 5.12 2.458 0 2.458 5.12 0 7.578 2.458 0 2.458 2.458 0 5.12 2.458 2.458 0 2.458 2.458 5.12 2.458v0c2.458 0 5.12 2.458 7.578 2.458 0 0 0 2.458 2.458 2.458 0 0 0 0 0 2.458 0 0 0 0 0 2.458 0 0 0 0 2.458 0v-2.458c2.458 0 5.12 2.458 7.578 2.458 0 2.458 2.458 2.458 2.458 2.458v0h2.458c2.458 2.458 5.12 2.458 7.578 5.12 0 2.458 2.458 2.458 2.458 2.458 2.458 0 0 2.458 2.458 2.458v0 0 0l2.458 2.458c2.458 0 2.458 2.458 5.12 2.458 0 2.458 2.458 2.458 2.458 5.12 0 0 2.458 0 0 0 0 2.458 2.458 2.458 2.458 5.12 2.458 0 2.458 2.458 2.458 2.458 0 2.458 0 2.458 2.458 5.12 2.458 0 0 5.12 2.458 5.12 0 0 0 2.458 0 5.12 2.458 0 2.458 2.458 2.458 2.458 0 2.458 0 2.458 0 2.458-2.458 2.458 2.458 2.458 2.458 5.12 2.458 0 2.458 2.458 5.12 5.12 0 0 0 2.458 2.458 5.12 0 2.458 0 2.458 2.458 5.12 2.458 0 2.458 2.458 5.12 5.12 2.458 0 2.458 2.458 2.458 5.12 0 0 2.458 0 2.458 2.458v0 0 0c0 2.458 2.458 0 2.458 2.458h25.19c2.458 0 5.12-2.458 7.578-2.458s5.12 0 5.12-2.458c5.12-2.458 7.578-7.578 12.493-5.12v0 0h22.528c2.458 0 10.035 2.458 10.035-2.458v-2.458c0-2.458 2.458-2.458 5.12-2.458h2.458c0-2.458 0-2.458 0-2.458 2.458 0 2.458 0 2.458-2.458 2.458 0 2.458-2.458 5.12-2.458v0 0l2.458-2.458c2.458 0 2.458-2.458 5.12-5.12 0 0 2.458-2.458 0-2.458 2.458 0 2.458-2.458 2.458-2.458 0-2.458 2.458-2.458 2.458-7.578 2.458 0 2.458-2.458 5.12-5.12v0c0 0 2.458 0 0-2.458 2.458 0 2.458-2.458 2.458-2.458s2.458 0 2.458-2.458v0c0-2.458 2.458-2.458 2.458-5.12 0-2.458-2.458-2.458-5.12-2.458 0-2.458-5.12-2.458-5.12-5.12-2.458 0-2.458-2.458-5.12-2.458 0-2.458-2.458-2.458-2.458-5.12s-2.458-2.458-2.458-2.458c-2.458 0 0-2.458-2.458-2.458v-5.12c-2.458-2.458-2.458-2.458-5.12-5.12-2.458 0 0-2.458-2.458-2.458 0-2.458 0-2.458 0-2.458v0 0c-2.458-2.458-5.12-5.12-7.578-5.12v0c2.458 0 2.458 2.458 5.12 2.458 0 2.458 5.12 0 7.578 2.458v0 0 0c0 0 0-2.458 2.458-2.458 0 0 2.458 0 2.458-2.458v0c0 0-2.458-2.458-5.12-2.458v0h-25.19c0-2.458-2.458-2.458-5.12-2.458 0 0 0-2.458-2.458-2.458 0 0 0 0-2.458-2.458-2.458 0 0-2.458-2.458-2.458v0 0 0c0 0 0 0-2.458 0s-5.12-2.458-5.12-2.458c-2.458 0-2.458-2.458-5.12-2.458s0-2.458-2.458-2.458c-2.458-2.458-5.12-2.458-7.578-5.12v0 0c0-2.458 0 0-2.458-2.458 0-2.458-5.12 0-5.12-2.458h2.458c2.458-2.458-2.458-2.458-2.458-5.12-2.458 0-2.458-2.458-2.458-2.458-2.458 0-2.458-2.458-5.12-5.12h2.458v-2.458c2.458 0 5.12 2.458 7.578 2.458 2.458 2.458 5.12 2.458 7.578 2.458h2.458c0-2.458 0-2.458 0-5.12 2.458 0 2.458 2.458 5.12 2.458v0c2.458 0 2.458 0 5.12 0 0-2.458 0-2.458 0-5.12 0 0 2.458 0 5.12 0v-2.458c0 0-2.458 0-2.458-2.458 0 0-2.458 0-5.12-2.458-2.458 0-2.458-2.458-2.458 0 0-2.458-2.458-2.458-2.458-2.458 0-2.458-2.458-2.458-5.12-2.458v0 0 0 0c0-2.458-2.458-2.458-2.458-2.458-2.458 0-2.458 0-2.458-2.458 0 0-2.458 0-2.458-2.458 2.458 0 2.458 0 2.458 2.458 2.458 0 5.12 0 5.12 0v-2.458l-2.458-2.458c-2.458 0-2.458-2.458-2.458-2.458s-2.458 0-2.458-2.458c0 2.458-2.458 0-5.12 0 0 0-2.458 0-2.458-2.458-2.458 0-2.458-2.458-5.12-2.458v0c0 0 0-2.458-2.458 0-2.458-2.458 2.458-2.458 2.458-2.458s0 0 0-2.458c0 0 0-2.458-2.458-2.458 0 0-2.458-2.458 0-2.458s2.458 0 5.12 2.458c2.458 0 5.12 5.12 10.035 2.458 2.458-5.12-2.458-2.458-5.12-5.12 0 0-2.458 0-2.458-2.458 0 0 0 0-2.458 0 0-2.458-2.458-2.458-2.458-5.12-2.458 0-2.458-2.458-2.458-5.12h5.12c0 2.458 2.458 2.458 2.458 2.458h2.458c2.458 0 2.458 5.12 5.12 7.578s5.12 2.458 10.035 2.458v0c0-2.458 0-2.458-2.458-2.458 0-2.458-2.458-2.458-2.458-5.12 2.458 0 2.458 2.458 5.12 2.458s5.12 0 10.035 0c0 0 2.458-2.458 0-2.458 2.458 0 0 0 2.458 2.458 5.12 0 10.035 0 12.493 0 0 2.458 2.458 2.458 5.12 2.458 0 0 0 2.458 2.458 2.458v0 0 0c2.458 0 2.458 0 5.12 2.458 2.458 0 5.12 0 5.12 2.458v0 0c2.458 0 2.458 2.458 5.12 2.458 0 2.458 2.458 2.458 5.12 2.458 0 2.458 5.12 2.458 7.578 2.458v0c5.12 2.458 12.493 0 20.070 0 2.458 0 2.458 2.458 5.12 2.458s2.458 2.458 5.12 2.458 7.578 0 7.578 2.458c-2.458 0-2.458 5.12-2.458 5.12 2.458 0 0 2.458 2.458 5.12 2.458 2.458 5.12 2.458 5.12 2.458 2.458 0 2.458 2.458 5.12 2.458 2.458 2.458 7.578 0 10.035 2.458s7.578 0 10.035 2.458c0 0 0 2.458 2.458 2.458v2.458c2.458 0 0 2.458 2.458 2.458v0c2.458 2.458 10.035 0 12.493 2.458 2.458 0 5.12 0 5.12 2.458s5.12 2.458 5.12 5.12c2.458 2.458 5.12-2.458 7.578 0 0-2.458 2.458-2.458 5.12-2.458v0c0 0 2.458 0 5.12 0 2.458 2.458 5.12 0 7.578 2.458 0 2.458 5.12 2.458 7.578 2.458 2.458-2.458 5.12 0 7.578 0v0c2.458 2.458 7.578 2.458 12.493 2.458 0 0 2.458 0 2.458-2.458 2.458 0 2.458 0 2.458-2.458h-7.578c0-2.458 5.12-2.458 5.12-5.12 0 0 0-2.458 2.458-2.458s2.458-2.458 2.458-2.458c2.458-2.458 5.12-2.458 5.12-5.12 0 0 0-2.458 2.458-2.458 0 0 2.458 0 0-2.458 2.458 0 0-2.458 2.458-2.458 0 0 2.458 0 2.458-2.458 0 0 0 0 2.458 0s2.458-5.12 5.12-5.12c0-2.458 2.458 0 2.458-2.458 2.458 0 2.458-2.458 2.458-2.458 0-2.458 2.458-2.458 2.458-2.458 2.458-2.458 5.12-5.12 7.578-5.12 0 0 0-2.458 2.458 0v-2.458c2.458 0 2.458-2.458 5.12-2.458 0-5.12 5.12-2.458 5.12-5.12 2.458 0 2.458-2.458 5.12-2.458 5.12 0 5.12-5.12 7.578-5.12 0 0 0-2.458 2.458-2.458s0 0 2.458-2.458c2.458 0 2.458-2.458 2.458-2.458s2.458 0 0 0v0 0h2.458c0-2.458 5.12-2.458 7.578-2.458 0-2.458 2.458 0 2.458-2.458 2.458 0 2.458-2.458 5.12-2.458 0-2.458 5.12 0 5.12-2.458 2.458 0 2.458 0 2.458-2.458 2.458 0 2.458-2.458 5.12-2.458 0-2.458 2.458 0 2.458-2.458h2.458c2.458 0 2.458 0 5.12-2.458 0-2.458 5.12 0 5.12-2.458 0 0 2.458 0 2.458-2.458 2.458 0 2.458-2.458 2.458-2.458 2.458 0 2.458-2.458 5.12-2.458 0 0 0 2.458 0 0v0c-2.458 0-2.458 2.458-2.458 2.458 0 2.458-2.458 0-2.458 2.458-2.458 0-2.458 0-5.12 2.458-2.458 0-2.458 2.458-5.12 2.458 0 2.458-5.12 2.458-5.12 5.12-2.458 0-5.12 2.458-5.12 2.458-2.458 0-2.458 2.458-2.458 2.458 0 2.458-5.12 0-5.12 2.458-2.458 2.458-5.12 2.458-7.578 5.12-2.458 0-2.458 2.458-5.12 2.458 0 2.458-2.458 2.458-5.12 2.458 0 0-2.458 2.458 0 2.458 0 0 2.458 0 5.12 0v0c2.458 0 2.458-2.458 2.458-2.458 0-2.458 2.458 0 2.458-2.458h2.458c0-2.458 2.458-2.458 2.458-2.458s2.458-2.458 2.458 0c0-2.458 2.458-2.458 2.458-2.458 2.458 0 2.458 0 5.12-2.458v0c2.458-2.458 5.12-2.458 10.035-5.12 0 0 0-2.458 2.458-2.458 0 0 2.458 0 0-2.458 2.458 0 5.12-2.458 7.578-2.458 0 0 2.458 0 0-2.458v0 0 0 0 0c2.458-2.458 2.458-2.458 5.12-2.458 2.458 0 5.12-2.458 5.12-2.458v0c2.458-2.458 5.12-2.458 7.578-5.12 0 0 0-2.458 0 0 0-2.458 2.458-2.458 2.458-2.458s2.458 0 5.12-2.458c2.458 0 2.458 0 2.458-2.458 0 0 2.458-2.458 5.12-2.458 0 0 2.458 0 0-2.458v0c0 0 2.458 0 2.458-2.458 2.458 0 2.458-2.458 5.12-2.458s2.458-2.458 5.12-2.458c0 0 2.458 0 2.458-2.458 2.458 0 2.458-2.458 5.12-2.458 2.458-2.458 5.12-2.458 5.12-2.458h2.458l2.458-2.458c0-2.458 2.458 0 2.458-2.458 2.458 0 2.458-2.458 5.12-2.458 0 0 2.458 0 2.458-2.458h2.458c2.458-2.458 5.12-2.458 10.035-5.12 0-2.458 2.458 0 2.458-2.458s2.458 0 2.458-2.458 2.458-2.458 5.12-2.458 2.458-2.458 5.12-2.458 5.12-2.458 7.578-2.458c0 0 2.458-2.458 5.12-2.458 0 0 0 2.458-2.458 2.458 0 2.458-2.458 0-2.458 2.458s-2.458 5.12 0 5.12 5.12-2.458 7.578-2.458v2.458h2.458c2.458 0 2.458 2.458 5.12 2.458 0 2.458-2.458 2.458-2.458 5.12-2.458 0-2.458 2.458-5.12 2.458 0 2.458-2.458 2.458-2.458 2.458-2.458 0-2.458 2.458-5.12 2.458 0 2.458-2.458 0-2.458 2.458v0h-5.53c-2.458 0-2.458 2.458-5.12 2.458s-2.458 2.458-5.12 5.12c-5.12 0-5.12 5.12-10.035 5.12 0 0 0 2.458-2.458 2.458v0c-2.458 0-5.12 0-5.12 2.458l-2.458 2.458c-5.12 2.458-7.578 5.12-10.035 7.578-2.458 0-2.458 2.458-5.12 2.458 0 2.458-5.12 2.458-7.578 2.458 0 2.458-2.458 2.458-5.12 2.458s-2.458 2.458-2.458 2.458v0c0 0 0 0-2.458 0s-2.458 2.458-5.12 2.458c0 2.458-2.458 0-2.458 2.458 0 0 0 0-2.458 0 0 2.458-2.458 2.458-5.12 2.458 0 2.458-2.458 2.458-2.458 2.458-2.458 0-2.458 2.458-5.12 5.12 0 2.458-2.458 0-5.12 2.458 0 0-2.458 2.458 0 2.458 0-2.458 2.458 0 2.458-2.458v0c0 0 2.458 0 0 0 0 0 0 0 2.458 0 0-2.458 2.458-2.458 5.12-2.458s2.458-2.458 5.12-2.458 5.12-2.458 7.578-5.12c0-2.458 2.458 0 2.458-2.458 2.458 0 2.458-2.458 5.12-2.458 0-2.458 5.12 0 5.12-2.458s2.458-2.458 5.12-2.458c0-2.458 2.458-2.458 5.12-2.458 0 0 0-2.458 2.458-2.458 2.458-2.458 5.12-2.458 7.578-2.458 0-2.458 2.458 0 2.458-2.458 2.458-2.458 5.12-2.458 7.578-5.12 2.458 0 2.458 0 5.12-2.458 0 0 2.458 0 2.458-2.458 2.458 0 2.458-2.458 5.12-2.458 0-2.458 2.458 0 2.458-2.458 2.458 0 5.12 0 5.12-2.458s5.12-2.458 5.12-5.12c0-2.458 2.458 0 5.12-2.458h2.458c2.458 0 0-2.458 2.458-2.458s5.12-5.12 10.035-5.12c2.458 0 2.458 0 2.458 2.458 2.458-2.458 7.578 0 7.578-2.458l-4.915 4.915c0 0 2.458 0 5.12 0 2.458 0 2.458 2.458 5.12 0-10.445 17.408-10.445 14.95-5.53 17.408 0 0 2.662-2.458 0 0zM955.802 277.606v0 0 0zM495.411 413.389h2.458zM513.024 405.811v0c2.458 2.458 2.458 2.458 0 0 0 5.12 0 2.458 0 0zM860.16 320.205c0 2.662-2.458 2.662 0 0l-5.12 2.458c0 2.458-5.12 0-5.12 2.458 0 0 0-2.458 2.458-2.458 0-2.458 2.458 0 2.458-2.458v0 0c2.458-2.458 5.12-2.458 10.035-5.12v0 0c-2.253 5.12-4.71 2.662-4.71 5.12z" />
<glyph unicode="&#xe902;" glyph-name="apps" d="M811.213 376.73h161.792v-216.678h-161.792v216.678zM892.109 431.616v80.691h-404.48v-352.051h268.902v271.36zM675.635 755.2h-621.158v-487.834h268.902v-52.224h-133.325v-54.886h242.893v54.886h-26.214v52.224h26.214v297.37h242.688z" />
<glyph unicode="&#xe903;" glyph-name="branches" d="M503.603 880.947c-163.635 0-295.936-139.264-295.936-306.381 0-212.378 271.36-536.166 285.286-550.093l10.445-13.926 10.445 13.926c10.445 13.926 285.286 341.197 285.286 550.093-2.867 167.322-135.373 306.381-295.526 306.381zM503.603 442.47c-76.595 0-139.264 62.669-139.264 139.264s62.669 139.264 139.264 139.264 139.264-62.669 139.264-139.264-62.464-139.264-139.264-139.264z" />
<glyph unicode="&#xe904;" glyph-name="calendar" d="M768.41 727.347v87.45h-87.654v-87.45h-320.512v87.45h-87.45v-87.45h-145.818v-641.434h787.251v641.434h-145.818zM389.325 231.731h-145.818v116.531h145.818v-116.531zM389.325 435.917h-145.818v116.531h145.818v-116.531zM593.51 231.731h-145.818v116.531h145.818v-116.531zM593.51 435.917h-145.818v116.531h145.818v-116.531zM797.696 231.731h-145.818v116.531h145.818v-116.531zM797.696 435.917h-145.818v116.531h145.818v-116.531z" />
<glyph unicode="&#xe905;" glyph-name="certificate" d="M73.933 711.987v-552.55h884.122v552.55h-884.122zM518.758 242.176h-326.042v55.296c0 55.296 52.429 129.843 124.314 143.77-38.707 16.589-63.693 49.562-63.693 94.003 0 57.958 47.104 105.062 105.062 105.062s105.062-47.104 105.062-105.062c0-44.237-30.31-82.944-66.355-96.666 71.885-16.589 121.651-77.414 121.651-149.094v-47.309zM847.667 242.176h-276.275v55.296h276.275v-55.296zM847.667 352.768h-276.275v55.296h276.275v-55.296zM847.667 463.155h-276.275v138.24h276.275v-138.24z" />
<glyph unicode="&#xe906;" glyph-name="check" d="M78.643 462.95l115.507 115.507 230.81-231.014 404.070 404.070 115.507-115.507-519.578-519.578-346.317 346.522z" />
<glyph unicode="&#xe907;" glyph-name="contact" d="M549.069 391.68c87.040 19.251 155.034 96.666 155.034 190.259 0 106.291-87.040 193.536-193.536 193.536s-193.741-87.040-193.741-193.536c0-90.317 64.512-167.731 148.275-186.982-148.275-15.974-261.12-138.445-261.12-289.997v-57.958h590.234v57.958c3.277 148.275-100.147 267.469-245.146 286.72zM761.856 675.738c-25.805 99.942-129.024 174.080-254.771 177.152-122.47 0-228.966-74.342-254.771-177.152-48.333-9.626-83.763-51.61-83.763-100.147 0-57.958 48.333-103.219 109.568-103.219v193.536c22.733 93.594 116.122 161.178 228.966 161.178 119.194-3.277 215.859-77.414 232.243-177.152v-161.178c-3.277-32.154-15.974-51.61-38.707-61.44-9.626 6.349-22.733 12.902-35.43 9.626-22.733-3.277-35.43-19.251-35.43-38.707 3.277-15.974 15.974-25.805 35.43-25.805 3.277 0 6.349 0 6.349 0 9.626 0 19.251 6.349 25.805 12.902 3.277 3.277 6.349 9.626 9.626 12.902 25.805 15.974 48.333 41.984 54.886 74.342 48.333 9.626 87.040 51.61 87.040 103.219 0.205 48.128-35.43 90.112-87.040 99.942z" />
<glyph unicode="&#xe908;" glyph-name="deblocking" d="M883.712 124.621v109.773l-52.019 40.346-28.672-34.611-52.019 40.346 28.672 34.611-69.018 54.886-40.346-52.019-52.019 40.346 40.346 52.019-121.242 98.099 43.213 52.019-112.23 218.931-201.933 31.744-195.994-245.146 74.957-190.259 236.544-60.621 43.213 52.019 348.979-276.89 109.568 34.406zM214.63 464.998l-43.213 86.426 141.312 175.923 95.232-23.142-193.331-239.206z" />
<glyph unicode="&#xe909;" glyph-name="emarket" d="M416.358 391.475h399.36l69.018 336.896h-538.010l-18.637 89.702h-229.171v-67.789h174.285l106.701-516.506h482.714v67.789h-427.827zM550.298 127.283c0-38.683-31.359-70.042-70.042-70.042s-70.042 31.359-70.042 70.042c0 38.683 31.359 70.042 70.042 70.042s70.042-31.359 70.042-70.042zM830.054 127.283c0-38.683-31.359-70.042-70.042-70.042s-70.042 31.359-70.042 70.042c0 38.683 31.359 70.042 70.042 70.042s70.042-31.359 70.042-70.042z" />
<glyph unicode="&#xe90a;" glyph-name="error" d="M820.838 536.064c0-10.067-8.161-18.227-18.227-18.227s-18.227 8.161-18.227 18.227c0 10.067 8.161 18.227 18.227 18.227s18.227-8.161 18.227-18.227zM812.442 510.054l-26.419 3.891c0 0-7.987 1.434-9.626-8.806 0-0.41-2.048-14.746-2.048-14.746l-9.626 10.035c0 0-0.614 0.819-1.434 1.024 0 0.205 2.662 4.915 2.662 4.915s2.048 0.41 3.072 2.662c-0.205-0.41 3.072 6.349 3.072 6.349s0.614 2.458-1.024 3.686c-0.205 0-4.096 1.843-4.096 1.843s-1.843 0.205-2.662-1.638c0 0-3.891-8.602-3.891-8.602s0.205-1.638 0.819-2.048c0 0.205-2.458-4.915-2.458-4.915s-12.288-0.614-5.734-13.312c0 0-28.058-62.669-28.058-62.669s0.205-3.277 4.096-2.253l28.262 60.826 14.746-16.794-1.229-10.445-15.36-7.373c0 0-4.71-1.229-7.373-11.674 0 0-2.867-16.589-3.072-17.613-0.819-3.891-1.434-7.987-2.253-11.878-0.819-4.506-1.024-7.168 3.072-10.035 2.867-2.048 9.421-3.277 11.674 0 1.638 2.458 2.253 7.168 3.072 9.83 2.253 7.578 4.301 14.95 6.554 22.528 0 0.205 0.205 0.41 0.205 0.819l15.77 6.349-1.229-43.418c0 0 12.902-38.298 13.107-38.707 1.024-2.867 6.554-4.096 8.806-3.686 2.458 0.41 5.325 2.048 6.554 4.096 1.024 1.843 0.41 3.482 0 5.325-0.819 4.096-1.843 7.987-2.662 12.083-1.434 6.554-3.072 13.107-4.506 19.661-1.229 5.734 0 11.469 0.819 17.203 0.819 5.325 1.434 10.65 2.253 15.974 1.024 6.758 2.048 13.517 2.867 20.48l10.445-3.277c0 0 3.891-0.41 6.758 2.662 0-0.205 16.384 31.539 16.384 31.539 1.229 2.253 0.819 6.349 0.205 8.806-1.229 5.734-5.12 9.216-10.035 11.674-7.373 2.662-13.926 6.144-20.48 9.626zM797.696 603.034l-1.024-26.010h-7.168l-1.024 26.010h9.216zM797.491 566.579h-8.806v6.554h8.806v-6.554zM826.982 594.227c0-1.638-0.205-3.072-0.614-4.301s-1.024-2.458-1.843-3.277c-0.819-1.024-1.638-1.843-2.867-2.458-1.024-0.819-2.253-1.434-3.686-2.048v-5.53h-7.578v8.192c1.024 0.41 2.048 0.614 2.867 1.024s1.638 0.819 2.662 1.638c0.819 0.614 1.434 1.434 2.048 2.253 0.41 0.819 0.819 1.843 0.819 2.867 0 1.638-0.41 2.867-1.434 3.482s-2.253 1.024-3.891 1.024c-1.024 0-2.253-0.205-3.482-0.819-1.229-0.41-2.458-1.229-3.686-2.048h-0.819v7.578c1.024 0.41 2.253 0.819 4.301 1.434 1.843 0.41 3.891 0.819 5.939 0.819 3.482 0 6.349-0.819 8.602-2.662s2.662-4.301 2.662-7.168zM818.79 566.579h-8.806v6.554h8.806v-6.554zM517.325 401.101v0 0 0zM952.32 261.018c-2.458 0 0 2.458 0 0-2.458 4.915-4.915 2.458-4.915 4.915 0 0-2.458 2.458-2.458 0 0 0-2.458 0-2.458 2.458-4.915 0-7.168 2.458-9.626 4.915 0 2.458-2.458 2.458-2.458 4.915v0 0h2.458c0 0 2.458 0 2.458-2.458 2.458 0 4.915 0 4.915 0 4.915 0 7.168-2.458 12.083-2.458v0c-2.458 0-4.915 2.458-7.168 4.915-2.458 0 0 2.458-2.458 4.915-2.458 0-2.458 2.458-4.915 2.458 0 0-2.458 0-2.458 2.458h-4.915c-2.458 2.458-7.168 2.458-7.168 4.915-2.458 0-2.458 0-4.915 2.458l-2.458 2.458c-4.915 0-7.168 2.458-9.626 4.915 0 2.458-2.458 0-2.458 2.458h-4.71c-2.458 2.458-7.168 2.458-12.083 4.915-2.458 0-2.458 0-4.915 2.458-2.458 0-4.915 2.458-7.168 4.915-2.458 0-2.458 2.458-4.915 2.458-2.458 2.458-4.915 2.458-7.168 2.458-2.458 0-2.458 2.458-4.915 2.458 0 2.458-2.458 0-2.458 2.458v0 0c-2.458 2.458-4.915 2.458-4.915 4.915-4.915 0-7.168 2.458-9.626 4.915-2.458 0-2.458 2.458-4.915 2.458 0 2.458-2.458 2.458-2.458 2.458-2.458 2.458-4.915 2.458-7.168 4.915-2.458 2.458-4.915 2.458-7.168 4.915 0 0-2.458 0-2.458 2.458h-2.458c0 2.458-2.458 0-2.458 2.458s-2.458 2.458-2.458 2.458v0 0c0 0 0 0-2.458 0s-2.458 2.458-4.915 2.458c0 2.458-2.458 2.458-2.458 4.915-2.458 0-2.458 2.458-4.915 2.458 0 0 0 2.458-2.458 2.458 0 2.458-2.458 2.458-4.915 4.915 0 0 0 2.458 0 0v0 0 0c-2.458 0-2.458 2.458-2.458 2.458 0 2.458-2.458 2.458-2.458 4.915v0c0 2.458-2.458 0-2.458 2.458v0 0c-2.458 0 0 2.458-2.458 2.458-2.458 2.458-7.168 4.915-7.168 7.168-2.458 0-2.458 2.458-4.915 2.458 0 0 0 2.458 0 0 0 2.458-4.915 2.458-2.458 4.915-2.458 0-2.458 2.458-2.458 2.458-2.458 0-2.458 2.458-2.458 2.458-2.458 0-2.458 2.458-4.915 4.915 0 2.458-2.458 0-4.915 2.458 0 2.458-2.458 2.458-4.915 2.458-2.458 2.458-4.915 2.458-7.168 4.915 0 2.458-2.458 2.458-4.915 2.458s-4.915 2.458-4.915 2.458 0 2.458-2.458 2.458v0c-2.458 0-2.458 2.458-2.458 2.458 0 2.458-4.915 2.458-4.915 7.168-2.458 0 0 2.458-2.458 2.458s0 4.915-2.458 7.168c-2.458 0 0 4.915-2.458 4.915v0c0 2.458-2.458 4.915-4.915 4.915 0-2.458-2.458-2.458-2.458-2.458-2.458 0-2.458 2.458-2.458 2.458-2.458 0-2.458 2.458-2.458 2.458v0c0 0 0 2.458-2.458 2.458 0 2.458 0 4.915-2.458 7.168-2.458 0 0 2.458-2.458 2.458v0c0 2.458-2.458 2.458-2.458 4.915-2.458 0 0 2.458-2.458 2.458v2.458c0 0-2.458 0-2.458 2.458 0 0 0 0-2.458 0-2.458 2.458-4.915 2.458-7.168 4.915-4.915 0-7.168 2.458-9.626 0v0c-4.915-2.458-9.626-2.458-16.998-2.458v0c-4.915 0-9.626 0-12.083 2.458 0 0-2.458-2.458-2.458 0-2.458 0-7.168 0-7.168-2.458 2.458 0 2.458 0 4.915-2.458 0 0 2.458 0 2.458-2.458s-2.458-2.458-4.915-4.915-7.168 2.458-12.083 2.458c-2.458 2.458-2.458 2.458-4.915 4.915-2.458 0-2.458 2.458-2.458 2.458v0 0 0c-2.458 0-2.458 0-2.458 2.458s-2.458 2.458-2.458 4.915v0 0 0 0c-2.458 0 0 2.458-2.458 2.458 0 0-2.458 0-2.458 2.458v0c0 2.458-2.458 2.458-2.458 4.915-2.458 0-2.458 2.458-2.458 2.458v2.458c0 0 0 2.458-2.458 2.458s-2.458 2.458-2.458 2.458c-2.458 0 0 4.915-2.458 4.915 0 2.458-2.458 2.458-4.915 4.915 0 2.458-2.458 2.458-2.458 4.915 0 0 0 2.458-2.458 2.458 0 2.458-2.458 4.915-4.915 4.915v7.373c2.458 2.458 0 4.915 0 7.168v0-9.626c0 0 0 2.458-2.458 2.458-2.458 2.458-2.458 4.915-4.915 4.915-2.458 2.458-4.915 4.915-7.168 7.168 0 0-2.458 0-2.458 2.458-2.458 0-2.458 0-2.458 2.458s-2.458 2.458-4.915 4.915c-2.458 0-2.458 2.458-4.915 4.915-2.458 0-2.458 2.458-4.915 2.458 0 2.458-2.458 2.458-2.458 2.458v0 0c-2.458 0-4.915 2.458-7.168 2.458 0 2.458-2.458 0-4.915 2.458h-13.722c-2.458 0-4.915-2.458-7.168-2.458 0-2.458-2.458 0-2.458-2.458-2.458 0-4.915-2.458-7.168-2.458v0h19.251c0-2.458-4.915 0-4.915-2.458-4.915 0-7.168-2.458-9.626 0v0c-2.458 0-2.458 0-2.458 0-7.168-2.458-7.168 4.915-12.083 2.458l-2.458 2.458c-4.915 0-4.915 2.458-9.626 2.458 0 2.458-4.915 0-7.168 0-2.458 2.458-9.626 2.458-14.541 2.458h-4.915c-2.458 2.458-4.915 0-4.915 2.458-2.458 0-2.458 0-4.915 0s-2.458 0-4.915 2.458h-4.915c-2.458 0-2.458 0-2.458 0h-14.541c-2.458-2.458-4.915-2.458-4.915-2.458-2.458-2.458-4.915-2.458-7.168-4.915 0-2.458-2.458-2.458-4.915-4.915 0-2.458-2.458 0-2.458-2.458-2.458-2.458-4.915-2.458-4.915-4.915-2.458 0-2.458-2.458-2.458-4.915s-2.458-2.458-2.458-7.168c-2.458 0-2.458-2.458-2.458-2.458v-2.458c-2.458 0 0-4.915-4.915-4.915v0 0 0c0-2.458-2.458-2.458-2.458-4.915-2.458 0-2.458-2.458-2.458-2.458v-4.915c0 9.626 0 7.168 0 4.915v0c0 0 0-2.458-2.458-4.915 0 0 0 0 0-2.458-2.458-2.458-2.458-2.458-2.458-4.915v-2.458c0-2.458-2.458-2.458-2.458-4.915 2.458-2.458-2.458-2.458-2.458-4.915-2.458 0 0-4.915-2.458-4.915 0-2.458 0-2.458-2.458-2.458s0-2.458-2.458-2.458v0c0-2.458 0-2.458-2.458-2.458v0 0c0-2.458-2.458 0-2.458-2.458s-2.458-2.458-2.458-4.915-2.458-4.915-4.915-7.168c-2.458 0-4.915-4.915-9.626-4.915 0-4.915-7.168-2.458-9.626-2.458s-4.915 0-7.168-2.458c-2.458 0 0-2.458-2.458-2.458 0-2.458-4.915-2.458-4.915-2.458-2.458 2.458-7.168 0-9.626 0v0c0 0 0 0-2.458 0 0-2.458-4.915 0-7.168-2.458-2.458 0-4.915-2.458-7.168 0 0-2.458-2.458 0-4.915-2.458 0-2.458-4.915-2.458-4.915-2.458 0-2.458-2.458-2.458-4.915-2.458 0-2.458-2.458 0-2.458-2.458-4.915 0-7.168-2.458-7.168-7.168h-2.458c0-4.915-2.458-4.915-4.915-7.168 0-2.458-2.458-2.458-2.458-4.915-2.458-2.458-2.458-4.915-4.915-4.915 0 0 0-2.458-2.458-4.915l-2.458-2.458c0-2.458-2.458 0-2.458-2.458-2.458 0-2.458-2.458-2.458-2.458 0-2.458-2.458 0-2.458-2.458s-2.458-2.458-4.915-4.915c-2.458 0 0-2.458-2.458-2.458s-4.915-2.458-7.168-2.458c0-2.458-2.458 0-4.915-2.458v0c-2.458 0-4.915-2.458-7.168-2.458v0c0 0 0 0-2.458 0v0l-2.458-2.458c-2.458 0-2.458-2.458-7.168-2.458 0-2.458-2.458 0-2.458-2.458-2.458 2.458 0-2.458-4.915-2.458v0c-2.458 0-4.915-2.458-9.626-2.458v0c0 0-2.458-2.458-4.915 0v0h-2.458c0-2.458-2.458-2.458-4.915-2.458 0-2.458-4.915 0-7.168-2.458-2.458 0-2.458-2.458-4.915-2.458v0c0 0 0-2.458-2.458 0 0-2.458-4.915-2.458-4.915-4.915-2.458 0-2.458-2.458-4.915-2.458 0-2.458-2.458-2.458-4.915-2.458v0h-2.458c0-2.458-2.458-2.458-2.458-2.458-2.458 0-2.458-2.458-4.915-4.915-2.458 0-2.458-2.458-2.458-2.458-2.458-2.458-7.168-2.458-9.626-4.915 0-2.458-2.458 0-2.458-2.458-2.458 0-4.915-2.458-7.168-4.915-2.458 0-2.458-2.458-2.458-4.915 0 0-2.458 0 0-2.458 0-2.458-2.458-2.458-4.915-2.458 0-2.458-2.458-2.458-2.458-2.458 0-2.458-2.458 0-2.458-2.458v0 0c0 0 0-2.458 0 0 0-2.458-2.458 0-2.458-2.458h16.998c-2.458 0-2.458-2.458-4.915-4.915 0-2.458-2.458 0 0-2.458-2.458-2.458-2.458-2.458-4.915-4.915-2.458 0 0-2.458-2.458-2.458 0-2.458-2.458-2.458-2.458-4.915-2.458 0 0 0-2.458-2.458 0 0-2.458-2.458-2.458 0 0 0-2.458 0-2.458-2.458 0 0-2.458-2.458-4.915-2.458v0 0c0-2.458-2.458-4.915-2.458-7.168-2.458 0-2.458-2.458-4.915-2.458 2.458-2.458 2.458 2.458 2.458 0 2.458 2.458 4.915 4.915 7.168 4.915v0 0c0 2.458 2.458 2.458 2.458 4.915 2.458 2.458 7.168 0 7.168 2.458 2.458 0 2.458-2.458 2.458-2.458l-2.458-2.458c0 0-2.458 0-2.458-2.458-2.458-2.458-2.458-4.915-4.915-4.915v-2.458c-2.458 0-2.458-2.458-2.458-2.458 2.458 0 2.458 0 2.458 0 2.458 0 2.458 2.458 4.915 0h2.458c0 2.458 2.458 0 4.915 2.458 0-2.458 0-2.458 0-2.458-2.458 0-2.458-2.458-2.458-2.458 0-2.458-2.458-2.458-4.915-2.458 0-2.458-2.458-2.458-2.458-2.458v0 0 0l2.458-2.458c0 0 0-2.458 2.458-2.458v-2.458c0 0 0 2.458 2.458 0v0c4.915 0 7.168 2.458 9.626 2.458 0 2.458 2.458 2.458 4.915 2.458s4.915 0 4.915-2.458c0 0 0-2.458-2.458-2.458 0-2.458-2.458-2.458-2.458-2.458-2.458 0-2.458-2.458-4.915-2.458v0c0 0 0 0-2.458 0v0c0 0 0-2.458-2.458 0 0-2.458-2.458-2.458-2.458-2.458-2.458 0-2.458-2.458-2.458-2.458v0 0h8.602c2.458 0 4.915 2.458 7.168 4.915 0 0 2.458 0 0 0 2.458 0 4.915 2.458 4.915 2.458 2.458 0 2.458 2.458 2.458 2.458l2.458 2.458c2.458 2.458 2.458 4.915 7.168 4.915-2.458 0 0-4.915-2.458-2.458 0-2.458-2.458-2.458-2.458-4.915v-2.458c-2.458 0-2.458-2.458-4.915-4.915 0 0-2.458-2.458 0-2.458v0c0 0 2.458 0 2.458 2.458 0 0 2.458 2.458 2.458 0 0 2.458 2.458 2.458 4.915 2.458v0c0 0 0 0 2.458 0v0 0c0 2.458 2.458 0 2.458 2.458v-2.458c0 0 0-2.458-2.458-2.458 0-2.458-2.458-2.458-2.458-4.915v-2.458c2.458 0 0-2.458 2.458-2.458v0 0c0 2.458 2.458 0 2.458 2.458s2.458 2.458 4.915 2.458 2.458 2.458 4.915 2.458v2.458c2.458 0 0 2.458 2.458 2.458 0 2.458 2.458 0 2.458 4.915 2.458 0 2.458 2.458 4.915 0v-2.458c0-2.458-2.458-2.458-2.458-4.915-2.458 0 0-2.458-2.458-2.458l-2.458-2.458c-2.458 0-2.458-2.458-2.458-4.915-2.458 0 0-2.458-2.458-2.458 0 0 0 0 0-2.458 0 0 2.458 0 2.458 2.458 2.458 2.458 7.168 4.915 9.626 7.168 0 0 0 2.458 2.458 2.458 0 2.458 2.458 2.458 2.458 2.458 0 2.458 0 2.458 0 2.458 0 2.458 0 2.458 2.458 2.458 0 2.458 2.458 0 2.458 2.458h2.458c2.458 2.458 2.458 2.458 4.915 4.915 4.915 0 2.458 4.915 7.168 4.915 0 2.458 2.458 0 2.458 2.458 2.458 0 0 2.458 2.458 2.458 0 2.458 2.458 2.458 2.458 4.915 2.458 0 2.458 2.458 4.915 2.458v0c0 0 0 0 2.458 0 0 2.458 2.458 2.458 2.458 4.915 2.458 0 0 2.458 2.458 2.458 0 2.458 4.915 2.458 4.915 4.915 2.458 0 0 2.458 2.458 2.458v2.458c2.458 0 2.458 2.458 2.458 2.458 2.458 0 2.458 2.458 4.915 2.458v0c0 2.458 0 0 2.458 0 0 2.458 2.458 2.458 2.458 2.458s0 0 2.458 0v0c0 0 0 0 2.458 0v0c0 0 0 2.458 2.458 2.458v0c2.458 0 4.915 4.915 7.168 4.915l2.458 2.458h4.915c2.458 0 2.458 0 2.458 2.458 2.458 0 2.458 2.458 4.915 2.458 0 2.458 4.915 2.458 4.915 2.458 2.458 0 2.458 0 4.915 0 0 0 0 0 0-2.458l2.458 2.458c0 2.458 4.915 2.458 7.168 4.915 0 2.458 2.458 2.458 4.915 2.458v0c2.458 0 2.458 0 4.915 0v0c0 0 0 0 2.458 0v0h2.458c2.458 0 2.458 2.458 7.168 0v0c2.458 0 2.458 2.458 4.915 2.458 0 2.458 2.458 2.458 4.915 2.458s2.458 0 4.915 2.458c2.458 0 2.458 2.458 4.915 2.458 0 0 2.458 0 2.458 2.458 0 0 0 0 2.458 0 0 2.458 4.915 2.458 4.915 4.915 0 0 0 2.458 2.458 2.458v0c2.458 0 0 2.458 4.915 2.458 0 2.458 2.458 2.458 2.458 4.915 2.458 0 2.458 2.458 2.458 2.458v0c0 0 0 2.458 2.458 0 0 2.458 4.915 2.458 4.915 4.915 2.458 0 2.458-2.458 4.915-2.458v0c0 2.458 2.458 2.458 2.458 4.915s2.458 0 2.458 2.458 4.915 0 7.168 0c0-2.458 0-2.458 0-4.915l4.915 2.458c0 0 0 2.458 2.458 2.458 0 2.458 2.458 0 2.458 2.458 2.458 2.458 4.915 4.915 7.168 4.915 0 2.458 2.458 2.458 4.915 2.458 0 2.458 2.458 0 4.915 2.458 0 2.458 4.915 0 7.168 2.458 0 2.458 2.458 0 4.915 2.458 2.458 0 2.458 2.458 4.915 2.458v0c2.458 0 4.915 2.458 7.168 2.458 0 0 0 2.458 2.458 2.458 0 0 0 0 0 2.458 0 0 0 0 0 2.458 0 0 0 0 2.458 0v-2.458c2.458 0 4.915 2.458 7.168 2.458 0 2.458 2.458 2.458 2.458 2.458v0h2.458c2.458 2.458 4.915 2.458 7.168 4.915 0 2.458 2.458 2.458 2.458 2.458 2.458 0 0 2.458 2.458 2.458v0 0 0l2.458 2.458c2.458 0 2.458 2.458 4.915 2.458 0 2.458 2.458 2.458 2.458 4.915 0 0 2.458 0 0 0 0 2.458 2.458 2.458 2.458 4.915 2.458 0 2.458 2.458 2.458 2.458 0 2.458 0 2.458 2.458 4.915 2.458 0 0 4.915 2.458 4.915 0 0 0 2.458 0 4.915 2.458 0 2.458 2.458 2.458 2.458 0 2.458 0 2.458 0 2.458-2.458 2.458 2.458 2.458 2.458 4.915 2.458 0 2.458 2.458 4.915 4.915 0 0 0 2.458 2.458 4.915 0 2.458 0 2.458 2.458 4.915 2.458 0 2.458 2.458 4.915 4.915 2.458 0 2.458 2.458 2.458 4.915 0 0 2.458 0 2.458 2.458v0 0 0c0 2.458 2.458 0 2.458 2.458h24.166c2.458 0 4.915-2.458 7.168-2.458 2.458 0 4.915 0 4.915-2.458 4.915-2.458 7.168-7.168 12.083-4.915v0 0h21.709c2.458 0 9.626 2.458 9.626-2.458v-2.458c0-2.458 2.458-2.458 4.915-2.458h2.458c0-2.458 0-2.458 0-2.458 2.458 0 2.458 0 2.458-2.458 2.458 0 2.458-2.458 4.915-2.458v0 0l2.458-2.458c2.458 0 2.458-2.458 4.915-4.915 0 0 2.458-2.458 0-2.458 2.458 0 2.458-2.458 2.458-2.458 0-2.458 2.458-2.458 2.458-7.168 2.458 0 2.458-2.458 4.915-4.915v0c0 0 2.458 0 0-2.458 2.458 0 2.458-2.458 2.458-2.458s2.458 0 2.458-2.458v0c0-2.458 2.458-2.458 2.458-4.915s-2.458-2.458-4.915-2.458c0-2.458-4.915-2.458-4.915-4.915-2.458 0-2.458-2.458-4.915-2.458 0-2.458-2.458-2.458-2.458-4.915s-2.458-2.458-2.458-2.458 0-2.458-2.458-2.458v-4.915c-2.458-2.458-2.458-2.458-4.915-4.915-2.458 0 0-2.458-2.458-2.458 0-2.458 0-2.458 0-2.458v0 0c-2.458-2.458-4.915-4.915-7.168-4.915v0c2.458 0 2.458 2.458 4.915 2.458 0 2.458 4.915 0 7.168 2.458v0 0 0c0 0 0-2.458 2.458-2.458 0 0 2.458 0 2.458-2.458v0c0 0-2.458-2.458-4.915-2.458v0h-24.166c0-2.458-2.458-2.458-4.915-2.458 0 0 0-2.458-2.458-2.458 0 0 0 0-2.458-2.458-2.458 0 0-2.458-2.458-2.458v0 0 0c0 0 0 0-2.458 0s-4.915-2.458-4.915-2.458c-2.458 0-2.458-2.458-4.915-2.458s0-2.458-2.458-2.458c-2.458-2.458-4.915-2.458-7.168-4.915v0 0c0-2.458 0 0-2.458-2.458 0-2.458-4.915 0-4.915-2.458h2.458c2.458-2.458-2.458-2.458-2.458-4.915-2.458 0-2.458-2.458-2.458-2.458-2.458 0-2.458-2.458-4.915-4.915h2.458v-2.458c2.458 0 4.915 2.458 7.168 2.458 2.458 2.458 4.915 2.458 7.168 2.458h2.458c0-2.458 0-2.458 0-4.915 2.458 0 2.458 2.458 4.915 2.458v0c2.458 0 2.458 0 4.915 0 0-2.458 0-2.458 0-4.915 0 0 2.458 0 4.915 0v-2.458c0 0-2.458 0-2.458-2.458 0 0-2.458 0-4.915-2.458-2.458 0-2.458-2.458-2.458 0 0-2.458-2.458-2.458-2.458-2.458 0-2.458-2.458-2.458-4.915-2.458v0 0 0 0c0-2.458-2.458-2.458-2.458-2.458-2.458 0-2.458 0-2.458-2.458 0 0-2.458 0-2.458-2.458 2.458 0 2.458 0 2.458 2.458 2.458 0 4.915 0 4.915 0v-2.458l-2.458-2.458c-2.458 0-2.458-2.458-2.458-2.458s-2.458 0-2.458-2.458c0 2.458-2.458 0-4.915 0 0 0-2.458 0-2.458-2.458-2.458 0-2.458-2.458-4.915-2.458v0c0 0 0-2.458-2.458 0-2.458-2.458 2.458-2.458 2.458-2.458s0 0 0-2.458c0 0 0-2.458-2.458-2.458 0 0-2.458-2.458 0-2.458s2.458 0 4.915 2.458c2.458 0 4.915 4.915 9.626 2.458 2.458-4.915-2.458-2.458-4.915-4.915 0 0-2.458 0-2.458-2.458 0 0 0 0-2.458 0 0-2.458-2.458-2.458-2.458-4.915-2.458 0-2.458-2.458-2.458-4.915h4.915c0 2.458 2.458 2.458 2.458 2.458h2.458c2.458 0 2.458 4.915 4.915 7.168 2.458 2.458 4.915 2.458 9.626 2.458v0c0-2.458 0-2.458-2.458-2.458 0-2.458-2.458-2.458-2.458-4.915 2.458 0 2.458 2.458 4.915 2.458s4.915 0 9.626 0c0 0 2.458-2.458 0-2.458 2.458 0 0 0 2.458 2.458 4.915 0 9.626 0 12.083 0 0 2.458 2.458 2.458 4.915 2.458 0 0 0 2.458 2.458 2.458v0 0 0c2.458 0 2.458 0 4.915 2.458 2.458 0 4.915 0 4.915 2.458v0 0c2.458 0 2.458 2.458 4.915 2.458 0 2.458 2.458 2.458 4.915 2.458 0 2.458 4.915 2.458 7.168 2.458v0c4.915 2.458 12.083 0 19.251 0 2.458 0 2.458 2.458 4.915 2.458s2.458 2.458 4.915 2.458 7.168 0 7.168 2.458c-2.458 0-2.458 4.915-2.458 4.915 2.458 0 0 2.458 2.458 4.915s4.915 2.458 4.915 2.458 2.458 2.458 4.915 2.458 7.168 0 9.626 2.458c2.458 2.458 7.168 0 9.626 2.458 0 0 0 2.458 2.458 2.458v1.024c2.458 0 0 2.458 2.458 2.458v0c2.458 2.458 9.626 0 12.083 2.458 2.458 0 4.915 0 4.915 2.458s4.915 2.458 4.915 4.915c2.458 2.458 4.915-2.458 7.168 0 0-2.458 2.458-2.458 4.915-2.458v0c0 0 2.458 0 4.915 0 2.458 2.458 4.915 0 7.168 2.458 0 2.458 4.915 2.458 7.168 2.458 2.458-2.458 4.915 0 7.168 0v0c2.458 2.458 7.168 2.458 12.083 2.458 0 0 2.458 0 2.458-2.458 2.458 0 2.458 0 2.458-2.458h-7.168c0-2.458 4.915-2.458 4.915-4.915 0 0 0-2.458 2.458-2.458s2.458-2.458 2.458-2.458c2.458-2.458 4.915-2.458 4.915-4.915 0 0 0-2.458 2.458-2.458 0 0 2.458 0 0-2.458 2.458 0 0-2.458 2.458-2.458 0 0 2.458 0 2.458-2.458 0 0 0 0 2.458 0s2.458-4.915 4.915-4.915c0-2.458 2.458 0 2.458-2.458 2.458 0 2.458-2.458 2.458-2.458 0-2.458 2.458-2.458 2.458-2.458 2.458-2.458 4.915-4.915 7.168-4.915 0 0 0-2.458 2.458 0v-2.458c2.458 0 2.458-2.458 4.915-2.458 0-4.915 4.915-2.458 4.915-4.915 2.458 0 2.458-2.458 4.915-2.458 4.915 0 4.915-4.915 7.168-4.915 0 0 0-2.458 2.458-2.458s0 0 2.458-2.458c2.458 0 2.458-2.458 2.458-2.458s2.458 0 0 0v0 0h2.458c0-2.458 4.915-2.458 7.168-2.458 0-2.458 2.458 0 2.458-2.458 2.458 0 2.458-2.458 4.915-2.458 0-2.458 4.915 0 4.915-2.458 2.458 0 2.458 0 2.458-2.458 2.458 0 2.458-2.458 4.915-2.458 0-2.458 2.458 0 2.458-2.458h2.458c2.458 0 2.458 0 4.915-2.458 0-2.458 4.915 0 4.915-2.458 0 0 2.458 0 2.458-2.458 2.458 0 2.458-2.458 2.458-2.458 2.458 0 2.458-2.458 4.915-2.458 0 0 0 2.458 0 0v0c-2.458 0-2.458 2.458-2.458 2.458 0 2.458-2.458 0-2.458 2.458-2.458 0-2.458 0-4.915 2.458-2.458 0-2.458 2.458-4.915 2.458 0 2.458-4.915 2.458-4.915 4.915-2.458 0-4.915 2.458-4.915 2.458-2.458 0-2.458 2.458-2.458 2.458 0 2.458-4.915 0-4.915 2.458-2.458 2.458-4.915 2.458-7.168 4.915-2.458 0-2.458 2.458-4.915 2.458 0 2.458-2.458 2.458-4.915 2.458 0 0-2.458 2.458 0 2.458 0 0 2.458 0 4.915 0v0c2.458 0 2.458-2.458 2.458-2.458 0-2.458 2.458 0 2.458-2.458h2.458c0-2.458 2.458-2.458 2.458-2.458s2.458-2.458 2.458 0c0-2.458 2.458-2.458 2.458-2.458 2.458 0 2.458 0 4.915-2.458v0c2.458-2.458 4.915-2.458 9.626-4.915 0 0 0-2.458 2.458-2.458 0 0 2.458 0 0-2.458 2.458 0 4.915-2.458 7.168-2.458 0 0 2.458 0 0-2.458v0 0 0 0 0c2.458-2.458 2.458-2.458 4.915-2.458s4.915-2.458 4.915-2.458v0c2.458-2.458 4.915-2.458 7.168-4.915 0 0 0-2.458 0 0 0-2.458 2.458-2.458 2.458-2.458s2.458 0 4.915-2.458c2.458 0 2.458 0 2.458-2.458 0 0 2.458-2.458 4.915-2.458 0 0 2.458 0 0-2.458v0c0 0 2.458 0 2.458-2.458 2.458 0 2.458-2.458 4.915-2.458s2.458-2.458 4.915-2.458c0 0 2.458 0 2.458-2.458 2.458 0 2.458-2.458 4.915-2.458 2.458-2.458 4.915-2.458 4.915-2.458h2.458l2.458-2.458c0-2.458 2.458 0 2.458-2.458 2.458 0 2.458-2.458 4.915-2.458 0 0 2.458 0 2.458-2.458h2.458c2.458-2.458 4.915-2.458 9.626-4.915 0-2.458 2.458 0 2.458-2.458s2.458 0 2.458-2.458 2.458-2.458 4.915-2.458c2.458 0 2.458-2.458 4.915-2.458s4.915-2.458 7.168-2.458c0 0 2.458-2.458 4.915-2.458 0 0 0 2.458-2.458 2.458 0 2.458-2.458 0-2.458 2.458s-2.458 4.915 0 4.915c2.458 0 4.915-2.458 7.168-2.458v2.458h2.458c2.458 0 2.458 2.458 4.915 2.458 0 2.458-2.458 2.458-2.458 4.915-2.458 0-2.458 2.458-4.915 2.458 0 2.458-2.458 2.458-2.458 2.458-2.458 0-2.458 2.458-4.915 2.458 0 2.458-2.458 0-2.458 2.458v0h-10.65c-2.458 0-2.458 2.458-4.915 2.458s-2.458 2.458-4.915 4.915c-4.915 0-4.915 4.915-9.626 4.915 0 0 0 2.458-2.458 2.458v0c-2.458 0-4.915 0-4.915 2.458l-2.458 2.458c-4.915 2.458-7.168 4.915-9.626 7.168-2.458 0-2.458 2.458-4.915 2.458 0 2.458-4.915 2.458-7.168 2.458 0 2.458-2.458 2.458-4.915 2.458s-2.458 2.458-2.458 2.458v0c0 0 0 0-2.458 0s-2.458 2.458-4.915 2.458c0 2.458-2.458 0-2.458 2.458 0 0 0 0-2.458 0 0 2.458-2.458 2.458-4.915 2.458 0 2.458-2.458 2.458-2.458 2.458-2.458 0-2.458 2.458-4.915 4.915 0 2.458-2.458 0-4.915 2.458 0 0-2.458 2.458 0 2.458 0-2.458 2.458 0 2.458-2.458v0c0 0 2.458 0 0 0 0 0 0 0 2.458 0 0-2.458 2.458-2.458 4.915-2.458s2.458-2.458 4.915-2.458 4.915-2.458 7.168-4.915c0-2.458 2.458 0 2.458-2.458 2.458 0 2.458-2.458 4.915-2.458 0-2.458 4.915 0 4.915-2.458s2.458-2.458 4.915-2.458c0-2.458 2.458-2.458 4.915-2.458 0 0 0-2.458 2.458-2.458 2.458-2.458 4.915-2.458 7.168-2.458 0-2.458 2.458 0 2.458-2.458 2.458-2.458 4.915-2.458 7.168-4.915 2.458 0 2.458 0 4.915-2.458 0 0 2.458 0 2.458-2.458 2.458 0 2.458-2.458 4.915-2.458 0-2.458 2.458 0 2.458-2.458 2.458 0 4.915 0 4.915-2.458s4.915-2.458 4.915-4.915c0-2.458 2.458 0 4.915-2.458h2.458c2.458 0 0-2.458 2.458-2.458s4.915-4.915 9.626-4.915c2.458 0 2.458 0 2.458 2.458 2.458-2.458 7.168 0 7.168-2.458l-4.915 4.915c0 0 2.458 0 4.915 0s2.458 2.458 4.915 0c-9.83 21.504-9.83 19.046-4.915 21.504 0 0 2.253-2.458 0 0zM930.406 241.766v0 0 0zM488.448 372.224h2.253zM505.242 364.851v0c2.458 2.458 2.458 2.458 0 0 0 4.915 0 2.458 0 0zM838.656 282.726c0 2.458-2.458 2.458 0 0l-4.915 2.458c0 2.458-4.915 0-4.915 2.458 0 0 0-2.458 2.458-2.458 0-2.458 2.458 0 2.458-2.458v0 0c2.458-2.458 4.915-2.458 9.626-4.915v0 0c-2.253 4.915-4.71 2.458-4.71 4.915z" />
<glyph unicode="&#xe90b;" glyph-name="eye" d="M943.923 483.226c-83.763 131.891-248.832 213.606-430.49 213.606s-346.522-81.92-430.49-213.811l-18.227-28.672 18.227-28.672c83.763-132.096 248.832-214.016 430.49-214.016s346.522 81.92 430.49 213.811l18.227 28.672-18.227 29.082zM507.085 613.888c19.046 0 34.202-15.36 34.202-34.202 0-19.046-15.36-34.202-34.202-34.202-35.84 0-65.126-27.238-65.126-60.826 0-19.046-15.36-34.202-34.202-34.202-19.046 0-34.202 15.36-34.202 34.202 0 71.27 59.802 129.229 133.53 129.229zM513.434 266.547c-162.816 0-309.862 72.090-383.795 187.802 48.333 75.366 127.181 131.891 221.184 162.406-27.648-32.973-44.442-74.752-44.442-120.218 0-106.496 90.317-192.717 201.728-192.717s201.933 86.016 201.933 192.512c0 47.718-18.227 91.136-48.333 124.928 100.352-29.286 184.934-87.859 235.315-166.912-73.933-115.712-220.774-187.802-383.59-187.802z" />
<glyph unicode="&#xe90c;" glyph-name="faq" d="M177.357 817.254v-616.448h200.090v-160.154l244.736 160.154h224.256v616.448h-669.082zM510.976 280.678c-23.757 0-43.008 19.251-43.008 43.008s19.251 43.008 43.008 43.008c23.757 0 43.008-19.251 43.008-43.008s-19.046-43.008-43.008-43.008zM638.976 545.075c-9.421-16.384-29.901-37.069-61.235-65.126-16.179-14.541-26.214-15.974-30.106-24.781s-5.734-9.421-5.325-33.792h-69.837c-0.205 0-0.205 3.686-0.205 6.144 0 24.371 3.686 34.202 11.059 49.971 7.578 15.77 22.528 31.744 44.851 51.61 22.528 19.866 35.84 31.744 40.141 37.888 6.758 9.626 10.035 19.866 10.035 31.539 0 16.179-6.144 29.696-18.022 41.165s-28.058 17.203-48.333 17.203c-19.456 0-35.84-6.144-48.947-18.022s-22.118-30.31-27.034-54.886l-70.451 9.421c2.048 35.43 15.974 65.331 41.574 89.907 25.805 24.576 59.597 37.069 101.376 37.069 44.032 0 79.258-12.493 105.062-37.478 26.010-24.781 38.912-53.248 38.912-86.221 0.819-18.842-4.096-35.226-13.517-51.61z" />
<glyph unicode="&#xe90d;" glyph-name="favorable" d="M906.035 839.578c-18.842 16.384-42.394 23.142-68.813 19.866-49.357-6.554-101.171-48.538-128.819-104.858-7.782-15.974-23.552-49.357-34.406-83.763l-178.176 40.55 0.41-0.41-423.117-374.989 278.323-316.211 423.117 374.579-18.432 190.669c26.624 11.059 57.549 27.853 88.678 48.128 49.971 32.358 84.787 84.378 88.678 132.506 2.458 29.491-7.373 55.706-27.443 73.933zM570.573 382.669l-44.442 49.152-49.766-45.056c35.635-45.875 35.84-95.642-1.434-129.434s-86.835-28.262-128.819 11.878l-33.587-30.106-29.696 32.973 32.973 29.696-58.982 66.15 32.973 29.696 59.187-65.741 65.741 59.187-4.71 5.325c-32.768 36.25-33.587 89.088-1.843 117.555s84.173 22.118 116.941-13.926l4.71-5.325 32.973 29.696 29.696-32.973-32.973-29.696 44.442-49.152-33.382-29.901zM889.446 769.126c-2.867-33.997-30.925-74.752-68.608-99.123-25.6-16.794-49.152-29.696-69.018-38.912l-2.253 22.118-32.358 7.168c6.758 20.275 16.589 45.261 30.72 74.138 20.89 43.008 60.006 75.981 94.618 80.486 13.517 1.843 24.986-1.434 33.792-8.806 10.035-8.602 14.336-21.299 13.107-37.069zM378.675 299.315c16.998-15.565 42.394-30.31 66.355-8.397s12.083 48.538-1.638 66.97l-64.717-58.573zM437.453 480.768c-13.517-12.288-11.264-36.864 5.12-55.091l4.71-5.325 49.152 44.442-4.915 5.325c-16.179 18.227-40.346 22.938-54.067 10.65z" />
<glyph unicode="&#xe90e;" glyph-name="filtrate" d="M903.782 724.685c0 52.838-177.152 96.461-394.65 96.461s-394.854-43.418-394.854-96.461v-3.072c0 0 0 0 0-3.072 3.072-9.216 12.493-18.637 24.781-27.853l276.48-332.595v-313.754l183.296 93.389v220.16l276.48 329.523c19.046 12.493 28.467 24.781 28.467 37.274zM508.723 759.091c136.806 0 236.134-18.637 292.25-34.202-55.91-15.565-155.443-34.202-292.25-34.202s-236.134 18.637-292.25 34.202c56.115 18.637 155.648 34.202 292.25 34.202zM114.074 730.010v0 0 0z" />
<glyph unicode="&#xe90f;" glyph-name="greenhand" d="M899.891 725.094l-3.277 93.184-71.885-59.392-89.702 25.6 34.406-86.835-52.019-77.414 72.909 4.506c-13.107-27.034-41.37-89.498-66.355-144.589-0.41-0.205-0.614-0.41-1.024-0.614l-174.694-116.736c-39.117 34.611-88.474 58.163-144.589 65.946 83.354 17.203 146.022 91.341 146.022 179.61 0 101.171-82.33 183.501-183.501 183.501s-184.115-81.92-184.115-183.091c0-87.040 61.645-159.949 143.155-178.586-141.926-16.794-248.218-131.891-248.218-275.866v-54.477h561.562v54.272c0 40.755-7.987 78.438-22.118 112.64l171.622 114.483c25.19 16.794 31.949 50.79 15.155 75.981l-4.506 6.963c-7.168 10.65-17.408 17.818-28.877 21.504 20.89 49.562 42.394 100.557 52.429 124.518l45.67-58.163 23.142 90.522 87.654 31.949-78.848 50.586z" />
<glyph unicode="&#xe910;" glyph-name="404" d="M456.294 339.251h-72.704v57.139h97.69c19.046 32.768 44.646 61.44 74.957 83.763h-172.851v57.139h224.87v-27.034c33.792 14.95 71.27 23.142 110.387 23.142 0.614 0 1.434 0 1.843 0v283.853h-559.923v-699.187l323.789-1.638c-25.395 41.574-39.936 90.522-39.936 142.746 0 27.853 4.096 54.682 11.878 80.077zM383.386 676.352h224.87v-53.248h-224.87v53.248zM328.294 339.251h-57.139v57.139h57.139v-57.139zM328.294 480.154h-57.139v57.139h57.139v-57.139zM328.294 623.104h-57.139v53.248h57.139v-53.248zM794.624 369.562l-74.547-74.547-74.752 74.547-35.84-35.635 74.752-74.752-74.752-74.957 35.84-35.635 74.752 74.547 74.547-74.547 36.045 35.635-74.752 74.957 74.752 74.752zM720.077 472.781c-117.76 0-213.811-95.846-213.811-213.811s95.846-213.811 213.811-213.811 213.811 96.051 213.811 214.016c-0.205 117.965-95.846 213.606-213.811 213.606zM720.077 90.829c-92.979 0-168.141 75.366-168.141 168.141 0 92.979 75.366 168.141 168.141 168.141 92.979 0 168.141-75.366 168.141-168.141 0.205-92.774-75.162-168.141-168.141-168.141z" />
<glyph unicode="&#xe911;" glyph-name="addaccount" d="M761.242 428.954c-115.507 0-209.51-94.003-209.51-209.51s94.003-209.51 209.51-209.51 209.51 94.003 209.51 209.51c-0.205 115.507-94.003 209.51-209.51 209.51zM761.242 54.579c-91.136 0-164.864 73.933-164.864 164.864 0 91.136 73.933 164.864 164.864 164.864 91.136 0 164.864-73.933 164.864-164.864 0-91.136-73.728-164.864-164.864-164.864zM618.496 443.699c-35.021 23.552-76.186 39.526-121.242 45.875 86.221 18.022 151.142 94.413 151.142 185.958 0 104.653-85.197 189.85-189.85 189.85s-189.85-85.197-189.85-189.85c0-90.112 50.381-165.683 134.554-184.934-146.842-17.613-270.131-136.397-270.131-285.286v-82.534h364.954c-5.12 24.166-7.987 55.091-7.987 77.005 0.41 97.485 51.405 195.584 128.41 243.917zM795.238 331.878h-54.886v-77.005h-77.005v-55.091h77.005v-77.005h54.886v77.005h77.005v55.091h-77.005z" />
<glyph unicode="&#xe912;" glyph-name="ann" d="M125.747 101.069h680.346v708.813h-680.346v-708.813zM239.206 724.89h453.632v-198.451h-453.632v198.451zM239.206 469.709h453.632v-56.73h-453.632v56.73zM239.206 356.25h453.632v-56.73h-453.632v56.73zM239.206 242.79h453.632v-56.73h-453.632v56.73zM862.822 753.152h56.73v-652.083h-56.73v652.083z" />
<glyph unicode="&#xe913;" glyph-name="index" d="M805.683 370.995c0.205 0 0.205 0 0 0 0.205 0 0.205 0 0 0zM811.418 364.646c-1.843 0.614 0.41 3.072-2.458 3.072 0 0-3.072 0-3.072 3.072v0 0c0-3.072 0-3.072 0-3.072v0c2.867 0 3.277-2.458 5.53-3.072zM821.658 358.298v0c0 3.072-3.072 0-3.072 3.072-3.072 3.072-3.072 3.072-6.349 3.072 0 0 3.072 0 3.072-3.072 0 0 3.072 0 3.072-3.072v0c0-0.205 0-0.614 0-0.819 0.819-1.638 3.277 0.819 3.277 0.819zM881.664 351.949l3.072-3.072c0 0 0 0 0 3.072 0 0 0 0-3.072 0zM825.754 352.768c0.205 0 0.205 0 0 0 0.614-0.41 1.229-0.614 1.638-0.819 0.205 0 0.41 0 0.614 0v0 0 0c0 0 0 2.458-2.253 0.819zM802.816 374.067v-2.048c0.819-0.41 1.434-1.024 3.072-1.229-0.819 0.205-3.072 0.614-3.072 3.277zM884.736 348.877c3.072 0 6.349-3.072 9.421-3.072 0-3.072 3.072 0 3.072 0-3.072 0-6.349 3.072-9.421 3.072h-3.072zM825.754 352.973c0 0-0.205 0 0 0-0.205 0 0 0 0 0zM856.474 336.179c0 0 0 0-3.072 3.072h-3.072c0 3.072-6.349 3.072-6.349 3.072 0 2.048-1.229 1.434-2.253 0.819 0.614-0.41 1.229-0.819 2.253-0.819 3.072-3.072 6.349-3.072 9.421-6.349l3.072 0.205zM512.819 867.021c-235.93 0-427.213-191.283-427.213-427.213s191.283-427.213 427.213-427.213 427.213 191.078 427.213 427.213-191.283 427.213-427.213 427.213zM903.782 336.179c0-12.698 0-9.421 0-12.698h-6.144c0 0 0 0 0-3.072h-3.072c0 0 0 0-0.819-0.819 0.41-0.41 0.819-1.229 0.819-2.253 0 0 0-3.072 3.072-3.072l3.072-3.072c-3.072 0 0 0-3.072 0h-3.072v-3.072c-3.072 0-3.072 3.072-6.349 3.072-3.072 0 0-3.072 0-3.072 0-0.205 0-0.614 0-0.819 0.614-1.843 3.072 0.41 3.072-2.458 0 0-2.662 0-3.072 2.458 0 0.205 0 0.41 0 0.819-3.072 0-3.072 3.072-6.349 3.072l-3.072 3.072c-3.072 0-3.072 3.072-6.349 0h-6.144c-3.072 0-6.349 3.072-6.349 3.072s0 0-3.072 0c0 0-3.072 0-3.072 3.072 0 0-3.072 0-3.072 3.072s-3.072 0-3.072 3.072c0 0-3.072 0-3.072 3.072l-3.072 3.072c-3.072 0-3.072 3.072-3.072 3.072s0 0 0 3.072h-3.072l-3.072 3.072c0 0 0 0 0 3.072 0 0 0 0 0 3.072v0c0 0-0.819 0-1.638 0.41 0 0-0.205 0.205-0.205 0.205-0.205 0-0.205 0.205-0.41 0.205-0.614 0.41-1.024 1.229-1.024 2.458v0c0 0-0.205 0-0.614 0-0.614 0-1.024 0.41-1.434 0.614 0 0 0 0-0.205 0.205-0.205-0.205-0.614-0.41-1.024-0.819 0 0-3.072 0-3.072 3.072 0 0-2.662 0-3.072 2.458 0 0.205 0 0.41 0 0.819v0c-3.072 0-3.072 3.072-6.349 3.072l-6.144 6.144c0 3.072-3.072 3.072-3.072 3.072v2.048c-0.819 0.41-1.638 0.41-3.072-1.229 0 0 0 0 0 3.072-3.072 0-6.349 3.072-6.349 3.072h-3.072c0 0-3.072 0-3.072 3.072h-3.072c0 0-3.072 0-3.072 3.072s-3.072 0-3.072 0 0 3.072-3.072 0h-3.072c0-3.072 6.349 0 6.349-3.072s3.072-3.072 3.072-3.072 0-3.072 3.072-3.072 3.072 0 3.072-3.072 3.072-3.072 3.072-3.072c1.024 0 1.638-0.41 2.253-0.819 0.205 0.205 0.614 0.41 0.819 0.819l3.072-3.072c0-0.205 0-0.614 0-0.819 0.614-1.843 3.277 0.41 6.144-2.458h3.072c0-0.205 0-0.205 0-0.41 0.41-0.205 0.819-0.614 1.434-1.229 0.819 0 1.638 0 1.638-1.638l3.072-3.072c0 0 0.205 0 0.614 0 0.614 0 1.024-0.41 1.434-0.614 0 0 0.205-0.205 0.205-0.205s0.205-0.205 0.205-0.205c0.205-0.41 0.614-0.819 0.614-1.434 0-0.41 0-0.614 0-0.614 0 3.072 0 0 3.072 0-3.072 0-3.072 0-3.072 0 0 0.205 0 0.41 0 0.614 0 0.41-0.205 1.024-0.614 1.434 0 0-0.205 0.205-0.205 0.205s-0.205 0.205-0.205 0.205c-0.41 0.41-1.024 0.614-1.434 0.614-0.205 0-0.41 0-0.614 0 0 0-3.072 0-3.072 3.072-0.614 0.614-1.229 1.229-1.638 1.638-0.614 0-1.434 0-1.434 1.229-0.819 0.41-1.638 0.41-3.277 0.41 0 0 0 0-3.072 0 0 0-2.662 0-3.072 2.458 0 0.205 0 0.41 0 0.819-2.048 0-2.867 1.434-4.096 2.458-2.253-1.638-2.253 0.819-2.253 0.819-3.072 3.072-6.349 0-6.349 3.072-3.072 0-6.349 0-6.349 3.072l-3.072 3.072c0 3.072-3.072 3.072-3.072 3.072v3.072c0 0 0 3.072-3.072 3.072v3.072c-3.072 0-3.072 3.072-6.349 6.349l-3.072 3.072c0 3.072-3.072 0-3.072 6.349 0 0 0 3.072-3.072 3.072 0 0 0 0 0 3.072-3.072 0-3.072 3.072-6.349 6.349 0 0 0 0-3.072 3.072 0 0 0 3.072-3.072 3.072 0 3.072-3.072 0-3.072 3.072-3.072 0-3.072 3.072-3.072 3.072v3.072c0 0 0 3.072-3.072 3.072s-3.072 3.072-6.349 3.072c0 0 0 0-3.072 3.072 0 0-3.072 0-6.349 3.072 0 0 0 0-3.072 0 0 0 0 0-3.072 0 0 3.072-3.072 0-3.072 3.072-3.072 0-9.421 0-9.421-3.072-3.072 0-3.072 0-6.349 0-3.072 0-6.349 0-6.349 0-3.072 0-6.349 0-6.349-3.072h-3.072c0 0-3.072 0-3.072 3.072-3.072 0-3.072 3.072-6.349 0 0 0-3.072-3.072-6.349-3.072 0 0-3.072-3.072-6.349-3.072-3.072-3.072-9.421 0-9.421-3.072 0 0 0 0 0-3.072-3.072-3.072-6.349 0-9.421-3.072-3.072 0-6.349 0-9.421 0s-3.072 0-3.072 0-3.072 0-6.349-3.072c0-3.072 0-3.072 0-3.072s0-6.349 3.072-3.072c0-3.072-6.349 0-6.349-3.072 0 0 0-3.072-3.072 0-3.072 0-3.072 0-3.072-3.072-6.349 0-9.421 0-15.77 0-3.072 0-6.349 0-6.349-3.072 0 0-3.072 0-3.072-3.072-3.072 0 0-3.072-3.072-3.072 0 0-3.072 0-3.072-3.072l-3.072-3.072c0 0-3.072 0-3.072-3.072-3.072 0-6.349 0-9.421 0v3.072c-3.072 0-6.349 0-6.349 0l-3.072-3.072c0 3.072 0 3.072 0 6.349 0 0 3.072 0 0 3.072-2.867 0-5.734 0-8.602-2.458 0.41-3.072-4.096-1.229-4.096-3.891 0 0-0.41 0-0.819-0.205-0.614-1.024-1.229-2.048-2.253-3.072 0 0-3.072 0-3.072-3.072 0 3.072 0 3.072 3.072 3.072 0 2.048 1.434 2.867 2.253 3.072 1.229 1.843 1.843 3.277 3.891 3.277 0.205 0.205 0.614 0.41 0.819 0.819 0 0.614-0.41 1.434-0.819 2.458-3.072 0-6.349 0-9.421-3.072h-3.072c0 0 0 0 0 3.072 3.072 0 0 3.072 3.072 3.072 0 0-3.072 0-3.072 3.072 3.072 0 0 3.072 3.072 3.072h6.144c0 0 0 3.072 3.072 3.072v3.072h-3.072c0 0 0-3.072-3.072 0 0 0 0 0 0 3.072 0 0 0 0 3.072 0 0 0 3.072 0 3.072 3.072 0 0 3.072 0 3.072 3.072 0 0 3.072 0 3.072 3.072h3.072c0 0 3.072 0 3.072 3.072 0 0 0 0 0 3.072h-3.072v3.072h-3.072c-3.072 0-3.072-3.072-3.072-3.072v3.072c0 0 0 0-3.072 0 0 0-3.072 0-6.349-3.072-3.072 0-3.072-3.072-6.349-3.072 0 0 0 0 0 3.072h-3.072l3.072 3.072c0 0 0 3.072 3.072 3.072 0 0 3.072 0 3.072 3.072s3.072 0 3.072 3.072 6.349 0 6.349 3.072c0 0 0 3.072 3.072 3.072s3.072 3.072 6.349 0c0 0 3.072 3.072 6.349 3.072 0 0 0 3.072 3.072 3.072 0 0 3.072 0 3.072 3.072 3.072 0 3.072 0 3.072 3.072 0 0 0 0 3.072 0s3.072 0 3.072 3.072c0 0 0 0-3.072 0 0-1.638-1.843-1.638-3.482-1.638-0.819-2.458-3.482-4.71-5.939-4.71 0 3.072 0 3.072 3.072 3.072 0 1.434 1.434 1.638 2.867 1.638 0.205 0.614 0.205 1.024 0.205 1.638 0 0 0 0 0 3.072 3.072 0 0 3.072 3.072 3.072l3.072 3.072v3.072c0 0 0 3.072 3.072 3.072 0 0 0 0 0 3.072l3.072 3.072c3.072 0 0 3.072 3.072 3.072 0 3.072 3.072 0 3.072 3.072 0 0 3.072 0 3.072 3.072s-3.072 3.072-3.072 3.072v3.072c0 0 0 3.072-3.072 3.072 0 3.072-3.072 3.072-3.072 3.072 0 3.072-3.072 3.072-3.072 6.349 0 0 0 3.072-3.072 3.072v6.144l-3.072 3.072v3.072c-3.072 0-3.072 3.072-6.349 3.072 0 0 0 0-3.072 0 0 0 0 0 0 3.072h-3.072c0 0-3.072 0-3.072 3.072s-6.349 0-9.421 0h-17.613c-6.349 0-6.349 3.072-12.698 6.349 0 0-3.072 3.072-6.349 3.072s-3.072 3.072-6.349 3.072h-18.842c0 0-3.072 0-3.072-3.072l-3.072-3.072c0 0 0-3.072-3.072-3.072v-3.072c0 0 0-3.072-3.072-3.072s0-3.072-3.072-3.072c0 0-3.072 0-3.072-3.072 0 0 0 0 0-3.072 0 0 0-3.072-3.072-3.072v-3.072c-3.072 0 0-3.072-3.072-3.072 0 0 0-3.072-3.072-3.072 0 0 0-3.072-3.072-3.072 0-3.072-3.072-3.072-3.072-3.072 0-3.072-3.072 0-3.072-3.072-37.888-15.77-37.888-15.77-37.888-15.77v-3.072c0 0 0-3.072-3.072 0 0 0-3.072 0-3.072-3.072-3.072 0-3.072-3.072-6.349-3.072 0 0 0 0-3.072 0 0 0-3.072 0-3.072-3.072-3.072 0-3.072-3.072-6.349-3.072 0 0 0 0 0 3.072h-3.072c-3.072 0-3.072 0-6.349 0s0-3.072-3.072-3.072c0-3.072-3.072 0-3.072-3.072-3.072 0-6.349 0-6.349 0h-3.072c0 0-3.072 0-3.072-3.072-3.072 0-6.349-3.072-6.349-3.072h-3.072c0 0 0 0-3.072 0h-3.072v3.072c0 0-3.072 0-6.349 0 0-3.072-3.072 0-3.072-3.072s0-3.072-3.072-6.349c-3.072 0-3.072 3.072-3.072 0s-3.072-3.072-3.072-6.349c-3.072 0 0 0-3.072 0 0-3.072-3.072-3.072-3.072-3.072-3.072 0 0-3.072-3.072-3.072 0 0 0 0-3.072 0 0-3.072-6.349 0-6.349-3.072 0 0 0 0-3.072 0s-3.072 0-3.072-3.072c0 0-3.072 0-3.072-3.072 0 0-3.072 0-3.072-3.072-3.072 0-3.072-3.072-3.072 0-3.072-12.698-3.072-12.698-6.349-12.698 0 0 0 0-3.072 0h-3.072c0 0-3.072 0-3.072-3.072-3.072 0-6.349 0-6.349-3.072h-6.144c0 0-3.072 0-3.072-3.072-3.072 0-3.072-3.072-3.072-3.072l-3.072-3.072c0 0 0 0-3.072 0 0 0 0 0-3.072 0 0 0-3.072 0-3.072-3.072-3.072 0-3.072-3.072-6.349-3.072h-3.072c0 0-3.072 0-3.072-3.072h-3.072c-3.072 0 0-3.072-3.072-3.072l-3.072-3.072v-3.072c-3.072 0 0-3.072-3.072-3.072 0-3.072-3.072-3.072-3.072-6.349-3.072 0 0-3.072-3.072-3.072 0-3.072-3.072-3.072-3.072-3.072-3.072 0-3.072-3.072-3.072-3.072 0-3.072-3.072-3.072-3.072-3.072s0-3.072-3.072-3.072c0-3.072-3.072 0-3.072-3.072-3.072 0-3.072-3.072-6.349-6.349 0-3.072-3.072-3.072-3.072-3.072 0-3.072-3.072 0-3.072-3.072 0 0 0 0 0-3.072 0 0 0 0 0-3.072 0 0-3.072 0-3.072-3.072-3.072-3.072-6.349-3.072-9.421-6.349 0 0 0 0-3.072 0 0 0 0 0 0 3.072 0 0 0 3.072 3.072 3.072 0 0 0 3.072 3.072 3.072l3.072 3.072c3.072 0 0 3.072 3.072 3.072 0 3.072 3.072 0 3.072 3.072v3.072h-3.072c0-3.072-3.072 0-3.072-3.072-3.072 0 0-3.072-3.072 0 0 0 0 0 0-3.072-3.072 0-3.072-3.072-3.072-3.072s-3.072 0-3.072-3.072c-3.072 0 0 3.072-3.072 3.072l3.072 3.072c0 0 0 0 3.072 3.072 0 0 0 0 0 3.072h-3.072c-3.072 0-3.072 0-3.072-3.072h-3.072c0-1.229 0-2.253 0-3.072 2.867 0 3.072 2.662 5.53 3.072 0.205 0 0.41 0 0.819 0-0.205 0-0.614 0-0.819 0-1.843-0.614 0.41-3.072-2.458-3.072 0-3.072-3.072-3.072-3.072-3.072 0-0.41 0-0.614 0-1.024v1.024c0 0.819 0 2.048 0 3.072v0c0 0 0 0-3.072-3.072 0 0 0-3.072-3.072 0l-3.072-3.072c0-3.072-3.072-3.072-6.349-3.072h-3.072c0 0 0 0 3.072 3.072 0 0 3.072 0 3.072 3.072 0 0 0 0 3.072 0s0 3.072 3.072 3.072c0 0 3.072 0 3.072 3.072s-3.072 0-3.072 0-3.072 0-3.072-3.072c-3.072 0-6.349-3.072-9.421-3.072v3.072c0 0 0 0 0 3.072h-3.072c0 0 0 0 3.072 3.072 0 0 3.072 0 3.072 3.072 0 0 0 3.072 3.072 3.072v3.072h-3.072c0 0 0 0-3.072 0 0 3.072 0 0-3.072 0 0 0 0 0-3.072 0 0 0 0 3.072 3.072 3.072s3.072 3.072 6.349 3.072c0 0 0 0 0 3.072 0 0 0 3.072-3.072 3.072 0-3.072-6.349 0-6.349-3.072s-3.072-3.072-3.072-3.072-6.349-3.072-6.349-3.072 0-3.072-3.072 0c3.072 0 3.072 3.072 3.072 3.072 0 3.072 3.072 3.072 3.072 6.349 0 0 3.072 0 3.072 3.072 0 0 0 0 0 3.072h-1.843c0 3.072 3.072 0 3.072 3.072 3.072 0 0 3.072 3.072 0 0 3.072 3.072 3.072 3.072 3.072s0 0 0 3.072c3.072 0 0 3.072 3.072 3.072 0 3.072 3.072 0 3.072 3.072s0 0 3.072 3.072c0 0 3.072 0 3.072 3.072 3.072 0 3.072 0 3.072 3.072s0 3.072 3.072 3.072c0 3.072 3.072 3.072 6.349 3.072 0 3.072 3.072 0 3.072 3.072 3.072 3.072 6.349 3.072 6.349 3.072s0 3.072 3.072 3.072l3.072 3.072h3.072c0 0 0 0 3.072 0 0 0 3.072 0 3.072 3.072 3.072 0 3.072 0 3.072 0 0 3.072 3.072 3.072 3.072 3.072s0 0 3.072 0 3.072 3.072 3.072 3.072 6.349 0 6.349 3.072c0 0 3.072 0 3.072 3.072h6.144c3.072 0 6.349 3.072 6.349 3.072 3.072 0 0 3.072 3.072 3.072h3.072c3.072 0 3.072 0 6.349 3.072h3.072c3.072 0 3.072 3.072 6.349 3.072 0 0 3.072 0 3.072 3.072 3.072 0 3.072 3.072 6.349 3.072 0 0 0 3.072 3.072 3.072 0 3.072 3.072 3.072 3.072 3.072s3.072 0 0 3.072c0 0 0 0 3.072 3.072 0 3.072 3.072 0 3.072 3.072 0 0 0 3.072 3.072 3.072s3.072 3.072 3.072 3.072c3.072 0 3.072 3.072 3.072 6.349 0 3.072 0 3.072 3.072 3.072s3.072 3.072 3.072 6.349h3.072c0 3.072 3.072 6.349 6.349 6.349h3.072c0 0 3.072 0 3.072 3.072 0 0 3.072 0 3.072 3.072h3.072c3.072 0 3.072 0 6.349 0 0 3.072 6.349 0 6.349 3.072 3.072 0 6.349 0 9.421 0 0 0 3.072 0 3.072 3.072 3.072 0 0 3.072 3.072 0 0 3.072 3.072 0 6.349 0 3.072 0 6.349-3.072 6.349 0 3.072 0 6.349 3.072 6.349 3.072 0 3.072 0 3.072 3.072 6.349 0 3.072 3.072 3.072 3.072 3.072s3.072 0 0 3.072c0 0 0 0 0 3.072 0 0 0 3.072 3.072 3.072 0 0 0 0 0 3.072 3.072 0 0 3.072 3.072 3.072 6.349 3.072 9.421 3.072 6.349 6.349 0 0 3.072 0 3.072 3.072 0 0 0 0 0 3.072 3.072 0 3.072 3.072 3.072 3.072s0 0 0 3.072v4.506c0 0 0 3.072 3.072 3.072 0 0 0 0 0 3.072 0 0 0 0 0 3.072 0 0 0 3.072 3.072 3.072 0 3.072 0 3.072 0 3.072 3.072 0 0 3.072 3.072 3.072 0 0 0 0 0 3.072 0 0 0 3.072 3.072 3.072 0 3.072 3.072 3.072 3.072 6.349 0 0 0 3.072 3.072 3.072 0 3.072 3.072 3.072 3.072 3.072 0 3.072 3.072 0 3.072 3.072l3.072 3.072c3.072 0 3.072 3.072 6.349 3.072s3.072 0 6.349 3.072h12.698c0 0 0 0 3.072 0h9.216c0 0 3.072 0 3.072-3.072h3.072c3.072 0 9.421 0 12.698-3.072 0 0 3.072 0 6.349 0 3.072 0 3.072-3.072 6.349 0h3.072c6.349 0 6.349-3.072 9.421-3.072 0 0 0 0 3.072 0s6.349 0 9.421 0c0 3.072 3.072 0 3.072 3.072 0 0 0 0 3.072 0s3.072 0 6.349 0c0 3.072 3.072 0 3.072 3.072 3.072 0 3.072 0 6.349 0h12.698c0 0 3.072 0 3.072-3.072 3.072 0 3.072-3.072 6.349-3.072 0 0 3.072 0 3.072-3.072 3.072 0 3.072-3.072 6.349-3.072 0-3.072 3.072-3.072 3.072-3.072 0-3.072 3.072-3.072 3.072-3.072s0 0 3.072 0c0 0 0 0 3.072 0 3.072-3.072 3.072-3.072 6.349-6.349 3.072 0 3.072-3.072 3.072-6.349 0 0 0 0 0-3.072 0 0 0 0 0-3.072s3.072-6.349 0-6.349v-3.072c3.072 0 3.072-3.072 3.072-3.072 0-3.072 3.072 0 3.072-3.072l3.072-3.072c3.072 0 0-3.072 3.072-3.072s0-3.072 3.072-3.072v-3.072l3.072-3.072c0-3.072 3.072-3.072 3.072-3.072s0 0 3.072 0l3.072-3.072c0 0 0 0 3.072 0 0 0 0-3.072 3.072-3.072l3.072-3.072c3.072 0 6.349-3.072 9.421-3.072s3.072 3.072 3.072 3.072-3.072 0-3.072 3.072h-3.072c0 3.072 3.072 3.072 6.349 3.072 0 0 0 0 3.072 0s6.349 0 9.421 0 9.421 0 12.698 0c3.072 0 3.072 0 9.421 0 12.698-22.118 15.77-22.118 18.842-25.19v-3.072c0-3.072 0-3.072 0-3.072v-3.072c0-3.072 0-3.072 0-6.349 0 0 0 0 0-3.072 0 0 0-3.072 3.072-3.072 0 0 0-3.072 3.072-3.072 0 0 3.072 0 3.072 3.072 0 0 3.072-3.072 3.072-6.349 3.072 0 0-3.072 3.072-3.072 0 0 0-6.349 3.072-6.349 0 0 0-3.072 3.072-3.072 0-3.072 3.072-3.072 3.072-6.349 3.072 0 0-3.072 3.072 0 3.072 0 3.072-3.072 6.349-3.072 3.072 0 3.072 0 3.072-3.072 3.072 0 3.072-3.072 6.349-3.072 0 0 3.072 0 3.072-3.072 0 0 3.072 0 3.072-3.072l3.072-3.072c0 0 0-3.072 3.072-3.072 0 0 0-3.072 3.072-3.072 0-3.072 3.072-3.072 3.072-6.349 3.072 0 0-3.072 3.072-3.072 0-3.072 3.072-6.349 6.349-6.349 0-3.072 3.072 0 3.072-3.072 0 0 3.072 0 3.072-3.072 0 0 0-3.072 3.072 0 0 0 3.072 0 3.072-3.072 3.072 0 0-3.072 3.072-3.072l3.072-3.072c3.072 0 0-3.072 3.072-3.072 0 0 3.072 0 3.072-3.072 0 0 3.072 0 3.072-3.072 3.072 0 3.072-3.072 6.349-3.072 0-3.072 3.072-3.072 6.349-3.072 0 0 3.072 0 3.072-3.072 3.072 0 0-3.072 3.072-3.072 3.072-3.072 6.349-3.072 9.421-3.072 0-3.072 3.072-3.072 3.072-3.072s0 0 3.072 0 0-3.072 3.072-3.072 3.072-3.072 6.349-3.072c3.072 0 3.072-3.072 3.072-3.072 3.072-3.072 3.072-3.072 6.349-3.072 0 0 3.072 0 3.072-3.072 3.072-3.072 6.349-3.072 9.421-6.349 0-3.072 3.072 0 3.072 0 3.072 0 6.349-3.072 9.421-3.072h3.072c3.072 0 3.072 0 6.349 0 0-3.072 6.349-3.072 6.349-3.072s0 0 3.072 0h3.072c0 0 0 0 3.072-3.072 3.072 0 3.072 0 3.072-3.072v-3.072c3.072 0 3.072-3.072 6.349-3.072 0 0 0 0 3.072 0 0-3.072 3.072 0 3.072-3.072 3.072 0 0-3.072 3.072-3.072 9.216-6.758 9.216-3.482 6.144-6.758zM877.363 326.963c0.205 0 0.205 0 0 0 0.205 0 0.205 0 0 0zM884.736 323.686v0 0zM878.592 326.758v0 0zM824.934 354.611c0 0.205 0 0.41 0 0.614 0 0 0-0.41 0-0.614z" />
<glyph unicode="&#xe914;" glyph-name="info" d="M512.614 16.077c-234.496 0-425.165 190.874-425.165 425.165 0 234.496 190.874 425.165 425.165 425.165 234.496 0 425.165-190.874 425.165-425.165 0.205-234.496-190.669-425.165-425.165-425.165zM512.614 784.896c-189.645 0-343.859-154.214-343.859-343.859s154.214-343.859 343.859-343.859 343.859 154.214 343.859 343.859-154.214 343.859-343.859 343.859zM451.789 507.392h122.266v-284.262h-122.266v284.262zM512.205 669.184h1.229c32.563 0 58.982-26.419 58.982-58.982v-1.229c0-32.563-26.419-58.982-58.982-58.982h-1.229c-32.563 0-58.982 26.419-58.982 58.982v1.229c0 32.768 26.624 58.982 58.982 58.982z" />
<glyph unicode="&#xe915;" glyph-name="login" d="M876.134 864.154h-598.426v-261.12h76.186v184.934h420.454l-185.344-134.554v-441.958h-235.11v182.682h-76.186v-263.168h311.296v-130.458l185.344 130.458h101.786zM406.118 378.368l177.766 119.808-177.766 119.808v-91.136h-287.13v-54.272h287.13z" />
<glyph unicode="&#xe916;" glyph-name="logout" d="M789.914 390.861l178.995 120.627-178.995 120.627v-91.75h-288.768v-54.682h288.768zM625.869 205.517h-186.163v444.826l-202.957 135.168h389.12v-159.744h76.595v236.339h-601.907v-733.389h136.192l202.957-135.168v135.168h262.758v284.672h-76.595z" />
<glyph unicode="&#xe917;" glyph-name="meow" d="M953.549 164.557c-1.229 2.253-3.891 3.072-6.349 2.458-48.538-13.926-82.944-9.216-101.171 14.746-29.901 38.707-10.24 114.688-10.24 115.302 6.349 23.962 15.77 47.718 24.986 70.246 13.517 33.382 27.238 67.994 32.154 105.882 7.373 57.139-5.939 114.278-18.432 151.757-42.189 127.181-145.203 209.101-262.349 209.101-41.779 0-81.92-10.24-119.808-30.515-9.626 10.035-20.070 17.613-31.744 22.938-14.131 6.554-29.696 10.035-45.875 10.035-71.27 0-148.275-62.464-191.693-155.034-46.899-100.352-42.598-192.717-38.093-290.611 1.024-22.938 2.048-46.694 2.662-70.861 0-0.614 0.614-68.198-34.816-104.243-15.36-15.565-35.43-24.576-60.006-24.576v0c-4.506 0-9.421 1.434-14.336 1.843-3.072 0.205-5.12-0.819-5.939-3.277s0.41-4.915 2.662-6.144c0.614-0.41 51.405-26.624 118.989-40.346-5.325-1.843-11.469-3.277-17.613-3.277-2.662 0-5.12-2.048-5.53-4.71s1.229-5.325 3.891-6.144c2.662-0.819 38.707-11.878 79.462-11.878 27.443 0 56.73 5.12 79.872 21.709 48.128-44.237 107.725-70.656 172.237-70.656 52.019 0 100.762 17.203 142.95 46.899v0c50.79-46.49 94.822-57.958 124.928-57.958 26.010 0 41.984 7.987 43.418 9.011 2.253 1.229 3.277 3.686 2.662 6.144s-2.662 4.096-5.325 4.301c-14.131 0.205-23.962 5.53-31.13 11.878 18.432-4.915 35.021-6.963 49.562-6.963 47.718 0 74.547 20.685 76.39 22.323s2.662 4.301 1.638 6.554-3.482 3.686-5.939 3.277c-8.602-1.229-15.77-0.614-22.323 1.024 44.237 18.227 68.198 41.574 69.837 43.213s2.048 4.301 0.41 6.554zM506.061 103.526c-138.854 0-252.109 141.517-252.109 315.597 0 6.758 0.205 13.517 0.614 20.070 27.648 11.264 105.472 48.128 139.059 121.651 35.226-53.248 127.59-136.397 364.134-158.106-6.758-166.502-116.941-299.213-251.699-299.213zM450.97 352.973c0-33.819-20.447-61.235-45.67-61.235s-45.67 27.416-45.67 61.235c0 33.819 20.447 61.235 45.67 61.235s45.67-27.416 45.67-61.235zM636.723 330.854c0-33.819-20.447-61.235-45.67-61.235s-45.67 27.416-45.67 61.235c0 33.819 20.447 61.235 45.67 61.235s45.67-27.416 45.67-61.235z" />
<glyph unicode="&#xe918;" glyph-name="money" d="M542.106 482.611v100.147h98.918v65.741h-98.714v65.946h-65.946v-65.946h-10.445c-72.704 0-131.891-51.814-131.891-115.507s59.187-115.507 131.891-115.507h10.445v-131.891h-131.686v-65.946h131.686v-65.946h65.946v67.174c86.426 6.349 141.517 55.706 141.517 130.662-0.41 74.957-55.501 124.723-141.722 131.072zM476.365 483.635h-10.445c-36.454 0-65.946 22.323-65.946 49.562s29.696 49.562 65.946 49.562h10.445v-99.123zM542.106 286.822v130.048c34.202-3.072 75.776-16.794 75.776-64.922-0.205-48.538-41.779-62.054-75.776-65.126zM780.902 679.014l48.947 43.827c-15.974 18.022-33.587 34.611-52.429 49.766l-40.96-51.61c15.974-12.698 30.925-26.829 44.442-41.984zM389.939 775.885l-22.938 61.85c-22.528-8.397-44.646-18.842-65.331-30.925l33.178-56.934c17.613 10.24 36.25 19.046 55.091 26.010zM223.027 647.475l-53.658 38.093c-13.926-19.661-26.214-40.55-36.659-62.259l59.392-28.467c8.602 18.227 19.046 35.84 30.925 52.634zM494.182 797.594l-3.686 65.741c-23.962-1.434-48.128-4.71-71.475-10.24l14.95-64.307c19.866 4.71 39.936 7.782 60.211 8.806zM174.899 552.243l-62.464 20.685c-7.373-22.733-12.902-46.49-16.794-70.451l64.922-9.421c3.072 19.866 7.782 39.936 14.336 59.187zM157.082 440.013v6.963l-65.946 1.434v-8.192c0-21.299 1.638-43.008 4.915-64.102l64.922 9.83c-2.662 17.818-3.891 36.045-3.891 54.067zM839.475 589.926l60.006 27.648c-10.035 21.914-22.118 43.008-35.84 62.874l-54.272-37.478c11.264-16.794 21.504-34.816 30.106-53.043zM732.979 803.533c-20.685 12.493-42.598 23.142-64.922 31.949l-23.962-61.44c18.842-7.168 37.478-16.589 54.886-27.034l33.997 56.525zM616.038 851.866c-23.142 5.734-47.309 9.421-71.27 11.059l-4.71-65.741c20.48-1.434 40.55-4.71 60.416-9.421l15.565 64.102zM868.966 487.526l65.331 8.602c-3.072 23.962-8.397 47.514-15.565 70.656l-62.874-19.661c5.939-19.456 10.65-39.731 13.107-59.597zM296.755 724.275l-39.936 52.224c-19.046-14.541-36.864-31.13-53.453-48.742l48.333-44.851c13.926 14.95 29.082 28.877 45.056 41.37zM686.899 126.259l31.744-57.754c20.89 11.674 41.165 24.986 60.211 40.141l-41.165 51.61c-16.179-12.902-33.178-24.166-50.79-33.997zM587.162 89.395l13.312-64.512c23.552 4.915 46.899 11.878 69.222 20.685l-24.166 61.235c-19.046-7.373-38.707-13.517-58.368-17.408zM170.598 341.094l-63.488-18.022c6.758-23.142 15.36-46.080 25.805-67.584l59.187 28.877c-8.397 18.022-15.77 37.274-21.504 56.73zM871.629 440.013c0-20.48-1.434-40.96-4.915-60.826l64.717-11.059c3.891 23.757 5.734 47.923 5.734 72.090v1.434l-65.536-1.638zM833.536 278.016l58.778-29.901c10.854 21.504 20.070 44.032 27.238 67.174l-62.874 19.456c-6.349-19.661-14.131-38.707-23.142-56.73zM771.482 191.181l47.309-45.67c16.794 17.408 31.949 36.25 45.67 56.115l-54.272 37.069c-11.469-16.998-24.576-32.973-38.707-47.514zM215.040 244.224l-55.091-36.25c13.312-20.275 28.058-39.322 44.646-56.934l48.333 44.851c-13.926 15.155-26.829 31.539-37.888 48.333zM515.482 82.022c-12.288 0.41-23.552 0.41-35.021 1.638l-6.349-65.741c13.722-1.434 27.443-2.048 41.37-1.843 10.445 0 20.685 0.41 30.925 1.229l-4.915 65.741c-8.602-0.614-17.203-1.024-26.010-1.024zM244.122 113.971c18.637-15.36 38.502-29.286 59.187-41.37l32.973 57.139c-17.613 10.24-34.406 21.914-50.176 34.816l-41.984-50.586zM352.051 48.435c22.323-9.216 45.466-16.794 69.018-22.118l14.336 64.307c-19.661 4.506-39.322 10.65-57.958 18.637l-25.395-60.826z" />
<glyph unicode="&#xe919;" glyph-name="myesun" d="M567.296 422.81c95.232 21.094 169.37 105.882 169.37 208.282 0 116.326-95.232 211.763-211.763 211.763s-211.763-95.232-211.763-211.763c0-98.918 70.656-183.501 162.202-204.8-162.202-17.818-285.901-151.757-285.901-317.645v-63.693h645.939v63.693c3.891 162.202-109.158 293.069-268.083 314.163z" />
<glyph unicode="&#xe91a;" glyph-name="news" d="M172.646 197.325v50.995h309.658v50.995h-309.658v53.043h309.658v50.995h-309.658v50.995h385.024l121.037 68.813 35.84 2.048v265.216h-647.987v-670.31h415.744v77.414h-309.658zM172.646 686.387h436.019v-179.2h-436.019v179.2zM559.718 221.901h99.942v-128.41h-99.942v128.41zM869.376 403.149h99.942v-309.658h-99.942v309.658zM714.547 299.315h99.942v-205.824h-99.942v205.824zM895.795 493.261l42.394-38.093 27.443 145.203-144.589-39.731 44.442-39.936-109.978-104.653-120.013-6.963-112.026-76.186 23.347-33.382 102.81 69.632 123.494 7.168z" />
<glyph unicode="&#xe91b;" glyph-name="notice" d="M938.189 156.16l-399.974 631.603c-5.939 9.421-16.589 15.36-27.648 15.36-11.264 0-21.709-5.734-27.648-15.36l-400.384-631.603c-6.349-10.24-6.758-22.938-1.024-33.587s16.794-16.998 28.672-16.998h800.358c12.083 0 22.938 6.554 28.672 16.998 5.939 10.65 5.734 23.552-1.024 33.587zM463.872 598.323h98.509v-228.352h-98.509v228.352zM566.477 253.235c0-29.901-24.166-53.862-53.862-53.862h-1.024c-29.901 0-53.862 24.166-53.862 53.862v1.024c0 29.901 24.166 53.862 53.862 53.862h1.024c29.901 0 53.862-24.166 53.862-53.862v-1.024z" />
<glyph unicode="&#xe91c;" glyph-name="onlinemsg" d="M179.814 837.12v-657.818h185.139v-156.877l242.483 156.877h256.41v657.818h-684.032zM757.146 338.227h-472.678v50.176h472.678v-50.176zM757.146 495.104h-472.678v54.477h472.678v-54.477zM757.146 651.981h-472.678v54.477h472.678v-54.477z" />
<glyph unicode="&#xe91d;" glyph-name="onlineopen" d="M478.413 390.246h-188.826v54.272h210.739v-40.55c19.661 9.011 42.598 14.541 65.741 14.541 2.867 0 5.734 0.205 8.397 0.205 4.71 0.205 8.602 0.205 13.722 0.205 5.53 4.301 12.083 8.397 16.589 12.083v406.938h-524.083v-642.458l279.962 0.41c6.758 32.768 21.504 67.379 43.622 93.389 9.011 41.984 37.069 79.258 74.138 100.966zM289.382 707.482h210.739v-54.272h-210.739v54.272zM289.382 574.976h210.739v-52.224h-210.739v52.224zM239.411 405.402h-54.272v52.224h54.272v-52.224zM239.411 537.907h-54.272v49.971h54.272v-49.971zM239.411 668.365h-54.272v49.971h54.272v-49.971zM885.146 290.304c-21.709 58.163-78.438 125.542-157.491 128-47.309 1.434-92.16-21.299-121.651-56.115-12.698 4.506-26.214 6.963-39.936 6.963-60.211 0-109.568-45.466-112.23-102.4-27.443-24.986-45.261-64.307-45.261-102.4 0-74.342 68.813-139.469 147.456-139.469h264.602c78.438 0 147.456 65.126 147.456 139.469 0 52.429-34.611 103.424-82.944 125.952zM820.634 79.36h-264.192c-54.272 0-95.027 45.056-95.027 86.016 0 25.6 14.746 54.272 34.611 67.789l12.902 9.011-2.253 20.070c0 30.31 26.829 54.477 59.802 54.477 12.288 0 24.166-3.482 34.202-9.83l22.528-14.541 13.926 23.142c18.432 30.72 53.453 49.971 92.16 50.381 57.549 0 103.834-41.779 105.472-94.822l0.614-18.637 18.022-5.12c35.021-10.65 62.669-46.285 62.669-81.715-0.41-41.165-41.165-86.221-95.437-86.221zM735.027 314.061h-49.971v-80.282h-80.486v-49.971h80.486v-82.739h49.971v82.739h82.534v49.971h-82.534z" />
<glyph unicode="&#xe91e;" glyph-name="openaccount" d="M933.683 358.093l-45.261 38.912-58.368-61.44h-297.984v-301.261h330.547v245.76l71.066 78.029zM800.973 95.539h-210.739v181.453h181.453l-77.619-80.896-61.44 61.44-42.189-42.189 103.629-103.629 100.352 110.182v-126.362h6.554zM713.523 843.878h-570.368v-719.258h359.629v239.821h210.739v479.437zM301.875 448.614h-38.912v38.912h38.912v-38.912zM301.875 568.422h-38.912v38.912h38.912v-38.912zM301.875 685.158h-38.912v38.912h38.912v-38.912zM593.51 447.59h-239.616v39.936h239.821l-0.205-39.936zM593.51 567.194h-239.616v39.526h239.821l-0.205-39.526zM593.51 685.363h-239.616v38.707h239.821l-0.205-38.707z" />
<glyph unicode="&#xe91f;" glyph-name="pc" d="M100.147 809.062v-575.693h346.522v-87.45h-144.589v-87.245h430.899v87.45h-144.589v87.45h349.594v575.488h-837.837zM847.462 320.819h-662.938v403.866h663.142v-403.866z" />
<glyph unicode="&#xe920;" glyph-name="pen" d="M190.874 122.778h654.131v-70.042h-654.131v70.042zM407.045 273.613l-179.968 124.302 322.976 467.614 179.968-124.302-322.976-467.614zM204.8 360.346l-1.434-191.488 178.381 69.222z" />
<glyph unicode="&#xe921;" glyph-name="phone" d="M854.63 158.413c-0.819 1.434-2.048 3.482-4.096 6.144l-113.254 157.286c-0.614 0.819-3.277 4.301-4.096 5.12-7.168 7.987-18.637 9.83-28.058 4.506-1.638-0.819-4.096-2.253-7.168-4.71l-70.656-50.995c-26.214-18.842-52.429-2.867-67.174 8.397-18.022 13.722-65.331 69.632-91.136 102.605l-12.288 16.794c-22.938 34.611-62.054 97.69-69.837 120.422-8.192 23.757-13.312 46.899 13.312 66.15l71.066 51.2c3.072 2.458 5.325 4.301 6.758 5.325 7.782 7.168 9.421 18.637 4.301 27.853-0.41 0.614-2.458 4.096-2.867 4.71l-114.074 157.901c-3.482 4.915-7.168 8.602-10.65 11.059-7.578 5.325-17.613 5.12-25.19 0.205-1.638-0.819-4.301-2.458-7.578-4.915l-48.333-35.021c-0.205-0.205-22.938-15.36-30.72-25.19-4.915-6.758-5.939-9.011-8.397-13.517-55.706-112.23-18.022-271.974 106.496-449.741l12.083-16.179c118.579-159.744 241.664-244.122 356.147-244.122 16.794 0 33.178 1.843 50.176 5.734 7.373 2.048 14.746 5.325 21.299 10.24 5.325 3.686 62.669 45.67 62.669 45.67 5.53 3.686 9.626 7.578 12.288 11.674 4.301 7.578 4.096 17.818-1.024 25.395z" />
<glyph unicode="&#xe922;" glyph-name="q" d="M513.229 873.779c-236.954 0-429.67-192.922-429.67-429.67 0-236.954 192.922-429.67 429.67-429.67 236.954 0 429.67 192.922 429.67 429.67 0.205 236.749-192.717 429.67-429.67 429.67zM513.229 96.563c-191.693 0-347.546 155.853-347.546 347.546 0 191.488 155.853 347.546 347.546 347.546s347.546-155.853 347.546-347.546-155.853-347.546-347.546-347.546zM650.65 663.040c-32.154 30.925-75.571 46.080-129.843 46.080-51.814 0-93.594-15.155-125.338-45.67-31.744-30.31-48.947-67.379-51.61-111.002l87.245-11.674c6.144 30.31 16.998 53.043 33.587 67.994 16.179 14.95 36.25 22.323 60.416 22.323 24.986 0 44.851-7.168 59.597-21.299 14.746-14.336 22.118-31.334 22.118-51.2 0-14.336-4.301-27.648-12.493-39.526-5.53-7.578-21.914-23.552-49.562-47.718s-46.080-46.285-55.296-65.741c-9.216-19.456-13.722-44.442-13.722-74.547 0-2.867 0-11.264 0.205-24.371h86.016c-0.41 28.262 1.638 47.718 6.554 58.982 4.71 10.854 17.408 25.395 37.274 43.418 38.707 34.816 63.898 62.259 75.776 82.33 11.878 20.275 17.818 41.574 17.818 64.307-0.41 40.55-16.589 76.39-48.742 107.315zM576.307 220.058c0-29.408-23.84-53.248-53.248-53.248s-53.248 23.84-53.248 53.248c0 29.408 23.84 53.248 53.248 53.248s53.248-23.84 53.248-53.248z" />
<glyph unicode="&#xe923;" glyph-name="quota" d="M543.334 489.779v99.533h100.557v67.789h-100.557v67.789h-65.536v-67.789h-12.083c-73.728 0-133.939-52.429-133.939-116.736s60.006-116.736 133.939-116.736h12.083v-133.12h-135.373v-67.994h135.373v-67.789h65.536v69.837c87.45 6.349 143.77 56.525 143.77 132.506s-56.32 126.362-143.77 132.71zM477.798 488.96h-12.083c-36.864 0-66.97 22.528-66.97 50.176s30.106 50.176 66.97 50.176h12.083v-100.352zM543.334 291.328v131.891c35.021-3.072 76.8-16.794 76.8-65.946s-41.779-62.669-76.8-65.946zM515.482 876.442c-236.954 0-430.080-192.922-430.080-430.080s192.922-430.080 430.080-430.080 429.875 193.126 429.875 430.285c-0.205 237.158-192.922 429.875-429.875 429.875zM515.482 83.456c-200.294 0-362.906 162.816-362.906 362.906s162.611 363.11 362.906 363.11 362.906-162.816 362.906-362.906-163.021-363.11-362.906-363.11z" />
<glyph unicode="&#xe924;" glyph-name="recommend" d="M514.253 679.424c101.786 0 188.211-81.306 188.211-183.091 0-32.973-10.24-71.27-28.058-96.666l-2.458-2.458c-5.12-7.578-10.24-15.36-15.36-20.275-7.578-10.24-20.275-22.938-28.058-30.515-7.578-10.24-15.36-22.938-20.275-32.973-2.458-5.12-5.12-7.578-5.12-12.698-17.818-30.515-28.058-76.39-28.058-91.546 0-5.12-2.458-15.36-2.458-28.058h-111.821c0 2.458 0 5.12 0 7.578-2.458 17.818-10.24 76.39-25.395 106.906-15.36 30.515-30.515 55.91-50.79 73.728-2.458 2.458-7.578 7.578-10.24 10.24-7.578 7.578-12.698 15.36-17.818 22.938-20.275 28.058-28.058 63.488-28.058 96.666 0.205 98.714 81.51 180.224 185.754 180.224zM514.253 727.757c-132.301 0-236.544-101.786-236.544-228.966 0-43.213 12.698-86.426 35.635-124.723 7.578-10.24 15.36-20.275 22.938-28.058 5.12-5.12 7.578-7.578 12.698-12.698 17.818-17.818 30.515-38.093 40.755-61.030s17.818-68.608 20.275-91.546c0-10.24 2.458-28.058 0-50.79h206.029c-2.458 0 2.458 61.030 2.458 66.15 5.12 25.395 15.36 58.573 25.395 78.848 7.578 12.698 15.36 28.058 22.938 38.093s17.818 20.275 25.395 28.058 12.698 17.818 20.275 28.058c25.395 35.635 38.093 81.306 38.093 127.181 0.205 129.638-106.496 231.424-236.339 231.424v0zM610.918 86.733c0-12.698-10.24-25.395-25.395-25.395h-144.998c-15.36 0-25.395 12.698-25.395 25.395v0c0 12.698 10.24 25.395 25.395 25.395h144.998c15.36-2.458 25.395-15.155 25.395-25.395v0zM745.882 842.24l-40.755 25.395-68.608-116.941c15.36-7.578 28.058-15.36 40.755-25.395l68.608 116.941zM799.13 450.458h152.576v48.333h-152.576c0-5.12 0-7.578 0-12.698 2.662-10.24 0-22.938 0-35.635zM893.338 676.762l-25.395 40.755-119.603-68.608c10.24-15.36 17.818-28.058 25.395-43.213l119.603 71.066zM313.344 867.635l-40.755-25.395 66.15-114.483c12.698 10.24 28.058 17.818 40.755 25.395l-66.15 114.483zM122.675 285.184l25.395-40.755 122.061 71.27c-10.24 12.698-17.818 28.058-25.395 40.755l-122.061-71.27zM870.4 244.429l25.395 40.755-124.723 73.728c-7.578-15.36-15.36-28.058-25.395-40.755l124.723-73.728zM537.19 778.547v134.758h-48.333v-132.301c5.12 0 10.24 0 17.818 0 10.24 0 22.938 0 30.515-2.458zM148.070 717.517l-25.395-40.755 116.941-68.608c7.578 15.36 15.36 28.058 25.395 43.213l-116.941 66.15zM211.763 498.79h-137.421v-48.333h139.878c-2.458 12.698-2.458 25.395-2.458 35.635 0 5.12 0 7.578 0 12.698zM577.946 38.4c0-48.333-15.36-66.15-63.488-66.15s-66.15 17.818-66.15 66.15h129.638zM471.040 158.003l-28.058 228.966v2.458c2.458 10.24 2.458 20.275 2.458 28.058 5.12 40.755 7.578 63.488 25.395 63.488 15.36 0 17.818-17.818 22.938-50.79 5.12 32.973 7.578 50.79 22.938 50.79s17.818-17.818 22.938-50.79c5.12 32.973 7.578 50.79 22.938 50.79 17.818 0 20.275-22.938 25.395-63.488 0-10.24 2.458-17.818 2.458-28.058v-2.458l-25.395-231.424-25.395 2.458 28.058 228.966c0 10.24-2.458 17.818-2.458 25.395v0c-5.12-38.093-7.578-58.573-22.938-58.573s-17.818 17.818-22.938 50.79c-5.12-32.973-7.578-50.79-22.938-50.79-17.818 0-20.275 20.275-22.938 55.91v0c0-10.24-2.458-20.275-2.458-28.058l28.058-223.846-28.058 0.205z" />
<glyph unicode="&#xe925;" glyph-name="renewal" d="M500.122 402.944h-138.24v59.392h202.547c38.502 24.166 80.896 36.454 133.53 39.731v373.146h-557.875v-679.117l293.069 0.41c-0.614 7.987-1.024 15.36-1.024 23.552 0 70.042 25.805 132.301 67.994 182.886zM361.882 736.768h226.304v-57.139h-226.304v57.139zM361.882 598.323h226.304v-54.886h-226.304v54.886zM306.995 416.051h-57.139v57.139h57.139v-57.139zM306.995 556.749h-57.139v54.886h57.139v-54.886zM306.995 697.242h-57.139v54.886h57.139v-54.886zM716.39 447.795c-120.832 0-219.136-98.304-219.136-219.136s98.304-219.136 219.136-219.136 219.136 98.304 219.136 219.136-98.099 219.136-219.136 219.136zM716.39 55.808c-95.232 0-172.646 77.414-172.646 172.646s77.414 172.646 172.646 172.646 172.646-77.414 172.646-172.646c0-95.437-77.21-172.646-172.646-172.646zM750.797 350.106h-52.838v-85.606h-85.606v-54.886h85.606v-85.606h52.838v85.606h79.053v54.886h-79.053z" />
<glyph unicode="&#xe926;" glyph-name="reserve" d="M706.97 103.936l-102.195 104.653 40.346 43.008 61.85-61.85 110.387 123.699 42.803-40.346zM733.798 394.138c91.341 0 166.502-75.162 166.502-166.502s-75.162-166.502-166.502-166.502-166.502 75.162-166.502 166.502c-2.662 91.136 72.499 166.502 166.502 166.502zM733.798 439.808c-118.17 0-212.378-94.003-212.378-212.378s94.003-212.378 212.378-212.378 212.378 94.003 212.378 212.378-96.666 212.378-212.378 212.378v0zM588.8 453.325c-35.021 24.166-77.824 40.346-123.494 45.67 88.678 18.842 153.19 96.666 153.19 188.211 0 107.52-86.016 193.536-193.536 193.536s-193.536-86.016-193.536-193.536c0-91.341 50.995-169.165 137.011-188.211-150.323-18.842-274.227-137.011-274.227-290.406v-80.486h370.893c-5.325 26.829-7.987 56.32-7.987 77.824 0 99.328 53.658 199.066 131.686 247.398z" />
<glyph unicode="&#xe927;" glyph-name="search" d="M209.51 744.55c-123.904-123.904-123.904-325.018 3.277-451.994 114.483-114.483 291.226-130.048 424.141-24.781l207.462-207.462 46.285 46.285-207.462 207.462c105.267 136.192 89.702 309.658-24.781 424.141-123.904 127.181-325.018 130.253-448.922 6.349zM618.086 335.77c-99.123-99.123-263.168-99.123-362.291 0s-99.123 263.168 0 362.291 263.168 99.123 362.291 0c99.123-99.123 99.123-263.168 0-362.291z" />
<glyph unicode="&#xe928;" glyph-name="sitemap" d="M895.386 308.941v162.611h-358.4v84.173h109.568v276.275h-276.070v-276.275h109.568v-84.173h-356.352v-162.611h-84.378v-221.389h221.389v221.389h-84.173v109.568h303.514v-109.568h-80.282v-221.389h217.498v221.389h-80.282v109.568h303.514v-109.568h-84.173v-221.389h221.389v221.389z" />
<glyph unicode="&#xe929;" glyph-name="subscription" d="M692.429 807.014h-586.138v-729.702h586.138v729.702zM282.010 308.941h-58.778v58.778h58.778v-58.778zM282.010 455.373h-58.778v58.778h58.778v-58.778zM282.010 601.805h-58.778v58.778h58.778v-58.778zM575.283 308.941h-234.496v58.778h234.496v-58.778zM575.283 455.373h-234.496v58.778h234.496v-58.778zM575.283 601.805h-234.496v58.778h234.496v-58.778zM751.002 807.014h175.718v-586.138h-175.718v586.138zM920.986 191.59l-84.992-120.218-84.992 120.218z" />
<glyph unicode="&#xe92a;" glyph-name="tempaccount" d="M583.475 456.397c-34.611 23.142-74.957 39.117-119.603 45.261 84.992 17.613 148.89 92.979 148.89 183.296 0 103.219-83.968 187.187-187.187 187.187s-187.187-83.968-187.187-187.187c0-88.678 49.357-163.43 132.71-182.272-144.794-17.203-266.445-134.349-266.445-281.19v-82.534h360.243c-4.915 26.214-7.782 54.886-7.782 76.595 0.205 96.051 50.79 193.331 126.362 240.845zM883.098 367.514c-39.526 38.707-91.341 59.392-146.227 58.163l0.819-42.189c43.213 1.434 84.173-15.565 115.712-46.285 32.154-31.539 50.586-75.366 50.586-120.422 0-91.955-74.752-166.707-166.707-166.707-92.16 0-165.274 73.318-166.707 166.912-0.614 46.49 17.203 88.474 48.947 119.194l-2.048-59.392 40.141 37.478 3.277 91.341-91.341 3.277-40.141-37.478 64.102-2.048c-42.189-38.707-65.741-92.979-64.922-152.986 1.638-116.941 93.594-208.486 208.896-208.486s208.896 93.798 208.896 208.896c0 56.32-23.142 111.206-63.283 150.733zM862.003 217.6h-104.858v104.653h-52.224v-157.082h157.082z" />
<glyph unicode="&#xe92b;" glyph-name="temppassword" d="M893.338 398.438c-40.55 39.731-93.389 60.826-149.709 59.802l0.819-43.213c44.032 1.434 86.221-15.974 118.579-47.514 32.973-32.154 51.814-77.414 51.814-123.29 0-94.208-76.8-170.803-170.803-170.803-94.208 0-169.37 75.162-170.803 171.213-0.614 47.514 17.613 90.726 50.381 122.061l-2.048-60.621 41.165 38.502 3.072 93.594-93.594 3.072-41.165-38.502 65.536-2.253c-43.008-39.731-67.379-95.437-66.56-156.672 1.843-119.808 95.642-213.606 214.016-213.606 117.965 0 214.016 95.846 214.016 214.016 0 57.549-23.552 113.869-64.717 154.214zM708.813 352.768v-160.768h163.021v52.224h-106.701v108.544zM732.979 531.763c10.65 0 21.709-0.819 32.154-1.843v88.474h-83.558v215.245h-505.856v-215.245h-79.258v-480.666h387.686c-17.203 35.43-26.624 76.186-26.624 118.784 0 151.757 123.494 275.251 275.456 275.251zM255.181 754.176h346.931v-135.782h-346.931v135.782z" />
<glyph unicode="&#xe92c;" glyph-name="top" d="M509.747 598.733l233.062-406.733h-470.016l236.954 406.733zM509.747 831.795l-434.586-754.278h872.858l-438.272 754.278z" />
<glyph unicode="&#xe92d;" glyph-name="versions" d="M445.030 442.061h153.6v79.872h341.402l-149.914 310.886h-557.261l-149.709-311.091h362.086v-79.667h-0.205zM313.958 755.2h415.334v-53.248h-415.334v53.248zM260.915 599.552v53.248h519.782v-53.248h-519.782zM651.878 392.704h-260.096v75.571h-311.091v-413.286h859.955v413.696h-288.768v-75.981zM805.274 159.642h-593.51v102.4h593.51v-102.4z" />
<glyph unicode="&#xe92e;" glyph-name="winapplogo" d="M919.552 654.234l-384.41 248.013c-16.384 10.854-38.093 5.53-49.152-10.854l-384.205-591.667c-10.854-16.384-5.53-38.093 10.854-49.152l384.41-248.013c16.384-10.854 38.093-5.53 49.152 10.854l384.41 591.667c10.854 16.384 5.325 38.093-11.059 49.152zM379.699 163.328c-13.722-19.046-38.093-24.576-57.344-13.722-19.046 13.722-24.576 38.093-13.722 57.344 13.722 19.046 38.093 24.576 57.344 13.722 19.251-13.722 24.781-38.093 13.722-57.344zM562.381 141.619l-348.979 223.642 308.019 477.184 346.317-223.642-305.357-477.184zM357.99 436.122l54.477 40.96 95.437-62.669-13.722-68.198 51.814-32.768 60.006 302.694-51.814 32.768-248.013-182.682 51.814-30.106zM545.997 575.181l-24.576-108.954-65.331 40.96 89.907 67.994zM630.579 446.976l24.576-10.854 21.709 32.563 38.298-24.371 16.384 27.238-38.298 24.576 24.576 32.563-24.576 16.384-21.709-38.093-38.298 24.576-16.179-24.576 38.093-21.914z" />
<glyph unicode="&#xe92f;" glyph-name="eyeclose" d="M863.232 427.11c29.286 25.805 54.477 54.886 74.957 87.040l9.011 14.131-46.080 29.286-9.011-14.131c-73.933-116.326-221.389-188.621-384.614-188.621s-310.886 72.294-384.819 188.621l-9.011 14.131-46.080-29.286 9.011-14.131c23.347-37.069 53.658-69.837 88.269-98.099l-94.822-35.43 18.637-54.067 133.12 49.766c29.491-17.408 61.235-32.563 94.413-44.237l-72.090-79.258 39.936-39.117 91.955 101.171c39.936-9.216 82.125-14.131 125.338-14.541v-112.026h55.91v114.074c34.202 3.072 74.342 9.626 109.773 19.661l83.763-95.027 39.936 39.117-67.174 75.571c30.72 12.493 59.597 27.443 86.221 44.851l130.867-49.152 18.637 54.067-96.051 35.635z" />
</font>
</defs>
</svg>
