<svg xmlns="http://www.w3.org/2000/svg" viewBox="0 0 319.49 315.81"><defs><style>.cls-1{fill:#fff;}.cls-2{fill:#ed1164;}</style></defs><g id="圖層_2" data-name="圖層 2"><g id="Layer_1" data-name="Layer 1"><path class="cls-1" d="M308.79,100c23.81,60.53,6.95,132-41.34,174.62-41.67,37.7-103.51,51.59-158.74,33.07C46.86,287.16,3.54,231.27.23,165.78-3.07,104,29.34,48.05,83.57,18.62c49.61-28.45,124-23.81,169.34,10.58C277.71,46.07,297.55,72.52,308.79,100Z"/><path class="cls-2" d="M152,73.52c5.63-1.66,12.9-6,18.53-1.66,4,6,14.88,7.93,11.9,16.2,5.61,7,11.9,14.88,19.18,20.18,1.65.33,2.31-.66,3-1.65l-2-1c2.32-2,7.93,1.32,11.57-.67,2.32,0,5.63.67,7.29,3,1.65,2.66,2,6,4.29,8.61l1.32-.66c1.66,3,2.32,5.62,4.3,8.27,11.91,4,17.53,18.18,28.12,24.13,12.89,9.59,26.45,19.19,41.67,24.81-.67,2,1.65,2,2.64,2.65V176c-2-1-4.63-2-6.62-1.33,2,3,7,1.65,8,5h-5.3c0,1,1.33,1,2,1.32-2.65-1-5.3,1-7-2.32-10.91-4.63-20.84-11.24-30.43-17.19l-.32.32c7.6,7.28,18.18,12.57,26.79,17.53,3,1.66,7.27,2.65,8.92,5.63-1,.33-2.65.33-3,1.65l-2.32-1.32c-.66.33,0,1-.34,1.32l1.66,1.32a143.11,143.11,0,0,1-34.06-19.84c-5-3.31-9.92-5.95-14.89-9.59-.65,0-1.64-.33-2,.66,5.63,4.3,11.58,7,17.2,10.92-10.25-5-22.49-12.25-30.76-22.16-3.64-3.64-8.93-11.25-15.21-9.93-2.31,1.32-5.95,1-8.6,2.32-2,0-3.64-2.32-5.61-.66-1.66,3.63-7,.66-7.95,4.63-3.3,1.32-9.25.33-10.25,4.3l.33,1.65c-6.61,3-15.54,2-20.17,8.27-1.33,1.32-4-.33-5.29,1.32.32-.66-.34-1.32-1-1.32-1.67-.67-2.65,1-4,1.32-1-1.65,1.33-2,1-3-3-1.31-4.3,2.65-6.61,4,.33-2.64,3.3-3,4.29-5.28-1.66-1-3,.65-4.29,1,.65-.33,2-2.65,0-2.65,1.65-2.64,5.29-1.65,6.27-4.62H151.7c2.64-2,5.62-4.3,7.93-6.29-1,0-3-2.64-4.62-.32,0-.34.66-.67.33-1-1.32-1.32-3,1-4.64,1,0,.32.34-1-.66-1.33h-1c1-.66,2.31-2.31,3.64-3.31l-.67-.66c5-3,9.92-6.28,14.89-8.6l1-1a3.45,3.45,0,0,0-5.29,0c4.31-.32.33-5,4.63-5.62.66-3.63,4-6.28,6.62-7.94-4.3-4-6-11.25-10.92-13.56-.33-3-3.31,0-3.63-3-5.95-.34-12.9,2.64-16.87-2.65-3-1-6.94-.66-9.92-.33-2.65,2.31-3.64,5.62-5.29,8.26-2.66,2-4,5.3-6,8.28-3,4-6.62,8.93-11.9,10.58v-.66c-3.65,5-11.59,3-16.21,8.27l-.33-1.33a2.76,2.76,0,0,0-3.32,2v.66c-2.31-.66-4,2-5,3.3C78.94,140,69.69,140,63.74,145c-.67.33.32,0,0-.33-10.93,2.32-16.22,10.58-23.49,18.52-2,3.3-5.3,5.29-7.93,7.93.66,2.65-3.32,3.64-4.64,5,1.32-2.32,4.3-4.3,4.64-6.95-2.65,1.33-3.32,4.3-6.29,5.62-1.66-1.32,1.65-2.32.66-3.64l-4,3,3.65-5c-2,.33-4,3.64-6.29,4-.67,1-1.66,1-3,1v-.33a71.12,71.12,0,0,0,5.62-5.29c-2.31-1.32-5,1.66-6.62,1.33-.66-.34-.32-2-2-1.33,1.66-1.32,3.3-2.31,4-4.3-1.32-.33-3,.66-4.31,1.32.34-1.65,3.64-2.64,2.66-5.29-4.3-.66-3.64,3.64-7.27,4.63,3.63-5,8.92-7.94,12.56-13.22l-.34-.34c7-7.6,15.55-12.23,24.15-17.2,7-4,16.2-5.95,21.17-12.56A53.7,53.7,0,0,0,72,113.86c1,.33,1.32-.66,1.64-1.32,5-3,10.27-5,16.22-5,2.64-2.65,7.6-1,9.59-4.64C106.39,94.68,109,84.43,115,76.16c2-2.64,4.29-7,8.27-7.94A162.22,162.22,0,0,1,152,73.52Z"/><polygon class="cls-2" points="225.78 112.86 224.47 108.57 225.78 112.21 225.78 112.86"/><path class="cls-2" d="M228.1,119.48c-1.32-.33-1-1.32-1.66-2.31A4.31,4.31,0,0,1,228.1,119.48Z"/><path class="cls-2" d="M70.35,121.8c-1-2,1.65-2.65,2.63-4.3A7.3,7.3,0,0,1,70.35,121.8Z"/><polygon class="cls-2" points="102.08 122.45 102.08 122.13 103.09 122.13 102.08 122.45"/><path class="cls-2" d="M95.16,124.44c-.67.67-1,1.66-2,1.33C93.17,124.77,94.49,123.79,95.16,124.44Z"/><path class="cls-2" d="M158.65,130.07c-1.65,1.32-5,2.31-5.29,4.29-3-.33-5,2.65-7.28,2.65.33-2.65,4.3-1,4.62-3.64l2.66-2,.32,1c1-1,4.3-.33,3.32-3Z"/><path class="cls-2" d="M148.07,132.05a5.17,5.17,0,0,1-3.64,2.65C145.09,133.05,146.41,133.05,148.07,132.05Z"/><path class="cls-2" d="M79.94,136c.65,1-.67,0-1,.66C79.27,136.35,79.61,136,79.94,136Z"/><rect class="cls-2" x="154.34" y="137.67" width="0.99" height="0.99"/><path class="cls-2" d="M153,140c0,.67-.66.67-1,1.33h-1c-.34-1,.66-1.33,1.32-1.65C152.7,139.66,152.7,140,153,140Z"/><path class="cls-2" d="M159.31,146.27c-.34,1.33-2,1.33-2.65,1.66-1-.33.34-.67.34-1.33C158,146.94,158.31,145.94,159.31,146.27Z"/><path class="cls-2" d="M160,148.25c-.34,1.33-2.65,1.33-4,2.32-.32-1.32,1.67-2,2.66-2.64C159,148.25,160,147.93,160,148.25Z"/><path class="cls-2" d="M239.35,151.57c1.32.65,2,2.3,3,3.3l-1,1a23.21,23.21,0,0,1-4.95-7.61C237.35,149.25,238,150.9,239.35,151.57Z"/><path class="cls-2" d="M287,169.09c-1,.67-2.31-.66-3.3-1Z"/><path class="cls-2" d="M296.23,174.05c-2.66-1.66-6.29-1.66-8.27-3.63A18.5,18.5,0,0,1,296.23,174.05Z"/><polygon class="cls-2" points="267.13 173.72 263.16 170.74 265.8 172.07 267.13 173.72"/><polygon class="cls-2" points="295.23 183.64 295.57 182.98 296.55 183.64 295.23 183.64"/><path class="cls-2" d="M293.91,185.3h-1.33v-.66C292.92,185,293.57,185,293.91,185.3Z"/></g></g></svg>