<?xml version="1.0" encoding="UTF-8"?>
<svg width="40px" height="40px" viewBox="0 0 40 40" version="1.1" xmlns="http://www.w3.org/2000/svg" xmlns:xlink="http://www.w3.org/1999/xlink">
    <title>icon-collect</title>
    <defs>
        <polygon id="path-1" points="0 0.100737931 18.9857865 0.100737931 18.9857865 25.8827487 0 25.8827487"></polygon>
    </defs>
    <g id="icon-collect" stroke="none" stroke-width="1" fill="none" fill-rule="evenodd">
        <g id="Group-6" transform="translate(11.000000, 7.000000)">
            <g id="Group-3" transform="translate(0.000000, 0.085469)">
                <mask id="mask-2" fill="white">
                    <use xlink:href="#path-1"></use>
                </mask>
                <g id="Clip-2"></g>
                <path d="M9.49291154,18.62028 C9.64655577,18.62028 9.8002,18.6696248 9.92972885,18.7681283 L17.2613538,24.3411145 C17.4146327,24.2459628 17.5242481,24.0314524 17.5242481,23.7888248 L17.5242481,2.19459724 C17.5242481,1.86705931 17.3242,1.59035586 17.0872481,1.59035586 L1.89930577,1.59035586 C1.66235385,1.59035586 1.46212308,1.86705931 1.46212308,2.19459724 L1.46212308,23.7888248 C1.46212308,23.7972041 1.46194038,23.8053972 1.46175769,23.8137766 C1.46084423,23.8392869 1.45792115,24.0694386 1.61010385,24.237211 C1.64956538,24.2805972 1.69213269,24.3120662 1.73305577,24.3349697 L9.05591154,18.7681283 C9.18562308,18.6696248 9.33926731,18.62028 9.49291154,18.62028 M17.0872481,25.8827487 C16.92995,25.8827487 16.7766712,25.8309559 16.6504308,25.7348731 L9.49291154,20.29428 L2.33612308,25.7348731 C2.20056538,25.8380317 2.03431538,25.8897972 1.86550769,25.8819766 C1.62873846,25.8708041 1.02512308,25.7866386 0.536969231,25.2485007 C0.0367576923,24.6967697 -0.006175,24.0467214 0.000584615384,23.7780248 L0.000584615384,2.19459724 C0.000584615384,1.04011448 0.852296154,0.10070069 1.89930577,0.10070069 L17.0872481,0.10070069 C18.1342577,0.10070069 18.9857865,1.04011448 18.9857865,2.19459724 L18.9857865,23.7888248 C18.9857865,24.9433076 18.1342577,25.8827487 17.0872481,25.8827487" id="Fill-1" fill="#ffffff" mask="url(#mask-2)"></path>
            </g>
            <path d="M11.0320577,5.42214 L7.953875,5.42214 C7.55030769,5.42214 7.22310577,5.08864345 7.22310577,4.67731241 C7.22310577,4.26598138 7.55030769,3.93248483 7.953875,3.93248483 L11.0320577,3.93248483 C11.435625,3.93248483 11.7628269,4.26598138 11.7628269,4.67731241 C11.7628269,5.08864345 11.435625,5.42214 11.0320577,5.42214" id="Fill-4" fill="#ffffff"></path>
        </g>
    </g>
</svg>