<?xml version="1.0" encoding="UTF-8"?>
<svg width="40px" height="40px" viewBox="0 0 40 40" version="1.1" xmlns="http://www.w3.org/2000/svg" xmlns:xlink="http://www.w3.org/1999/xlink">
    <title>icon-copy</title>
    <defs>
        <polygon id="path-1" points="6.61705295e-05 0.0594729888 10.7881265 0.0594729888 10.7881265 11.9008264 6.61705295e-05 11.9008264"></polygon>
    </defs>
    <g id="icon-copy" stroke="none" stroke-width="1" fill="none" fill-rule="evenodd">
        <g id="Group-10" transform="translate(11.000000, 11.000000)">
            <path d="M16.8222729,1.06772696 C15.2940973,-0.386403351 12.8495594,-0.350668155 11.3736504,1.14683884 L8.11140044,4.45650236 C8.29241029,4.40391094 8.48360193,4.37446873 8.68180771,4.37446873 C9.24904731,4.37446873 9.7617577,4.60573613 10.1310178,4.97769682 L12.667192,2.4047627 C13.0667712,1.99931431 13.600524,1.79546636 14.1356343,1.79546636 C14.6519649,1.79546636 15.169653,1.98515508 15.5699111,2.36565626 C16.046872,2.82032482 16.2692879,3.47906608 16.1645284,4.1276936 C16.0989123,4.53314199 15.9117934,4.90128194 15.6205938,5.19458025 L11.2867656,9.59427962 C10.5005041,10.3923657 9.19813829,10.4092219 8.38427278,9.63338606 C8.34241426,9.59338062 8.30327088,9.55112769 8.26525881,9.5082005 L7,10.7928696 C7.04366862,10.8387185 7.08484836,10.8865902 7.13100587,10.9306411 C7.8799341,11.6446708 8.84901556,12 9.8169657,12 C10.8227016,12 11.8273063,11.6161276 12.5805335,10.8519787 L16.9125516,6.4543021 C17.4668942,5.89512494 17.8261988,5.18918625 17.9515481,4.41312567 L17.9515481,4.41290092 C18.1506589,3.18149753 17.7286797,1.93121516 16.8222729,1.06772696" id="Fill-3" fill="#ffffff"></path>
            <g id="Group-9" transform="translate(0.000000, 6.000000)">
                <mask id="mask-2" fill="white">
                    <use xlink:href="#path-1"></use>
                </mask>
                <g id="Clip-8"></g>
                <path d="M1.21790204,10.9001873 C2.75969796,12.2991956 5.18418776,12.2216198 6.62159592,10.7278457 L9.7988,7.42624793 C9.62010612,7.48090358 9.43108571,7.5128595 9.23443265,7.51638567 C8.67141224,7.52630303 8.15867755,7.30856198 7.78602449,6.95021488 L5.31596327,9.51704683 C4.92669796,9.92167493 4.40094286,10.1306006 3.87002449,10.1398567 C3.35773878,10.1488926 2.84096327,9.97192287 2.43710612,9.60586226 C1.9558,9.16839669 1.72345306,8.52663361 1.81571837,7.88861708 C1.87363673,7.48993939 2.05277959,7.12586226 2.3363102,6.83319008 L6.55694286,2.44420937 C7.32290204,1.64795592 8.61439184,1.60872727 9.43557551,2.35517355 C9.47800408,2.39374105 9.5172898,2.4345124 9.55590204,2.4759449 L10.7881265,1.19462259 C10.743902,1.15032507 10.7023714,1.10426446 10.6556776,1.06173003 C9.9000449,0.374787879 8.93249388,0.0433278237 7.97212653,0.060077135 C6.97426939,0.0774876033 5.98471837,0.471316804 5.25108571,1.23363085 L1.03202449,5.6206281 C0.49235102,6.17864463 0.148657143,6.87682645 0.0379836735,7.64002204 L0.0379836735,7.64024242 C-0.137567347,8.85082094 0.303330612,10.0693333 1.21790204,10.9001873" id="Fill-7" fill="#ffffff" mask="url(#mask-2)"></path>
            </g>
        </g>
    </g>
</svg>