<?xml version="1.0" encoding="UTF-8"?>
<svg width="40px" height="40px" viewBox="0 0 40 40" version="1.1" xmlns="http://www.w3.org/2000/svg" xmlns:xlink="http://www.w3.org/1999/xlink">
    <title>icon-share</title>
    <defs>
        <polygon id="path-1" points="0 0 23.9300785 0 23.9300785 25.9236911 0 25.9236911"></polygon>
    </defs>
    <g id="icon-share" stroke="none" stroke-width="1" fill="none" fill-rule="evenodd">
        <g id="Group-3" transform="translate(8.000000, 7.000000)">
            <mask id="mask-2" fill="white">
                <use xlink:href="#path-1"></use>
            </mask>
            <g id="Clip-2"></g>
            <path d="M21.7456779,22.896974 C20.846846,24.2616569 19.0001204,24.6442585 17.6287221,23.7496894 C16.2575363,22.8551203 15.8731115,21.0169415 16.7719434,19.6522585 C17.6707752,18.2875756 19.5177133,17.904974 20.8888991,18.7995431 C22.260085,19.6941122 22.6445097,21.5322911 21.7456779,22.896974 M4.65130619,15.9321447 C3.01166018,15.9321447 1.67785487,14.604665 1.67785487,12.9727951 C1.67785487,11.3409252 3.01166018,10.0134455 4.65130619,10.0134455 C6.29073982,10.0134455 7.62475752,11.3409252 7.62475752,12.9727951 C7.62475752,14.604665 6.29073982,15.9321447 4.65130619,15.9321447 M17.6287221,2.17391707 C19.0001204,1.27934797 20.846846,1.66194959 21.7456779,3.02663252 C22.6445097,4.39131545 22.260085,6.22949431 20.8888991,7.12406341 C19.5177133,8.01863252 17.6707752,7.63603089 16.7719434,6.27134797 C15.8731115,4.90666504 16.2575363,3.06848618 17.6287221,2.17391707 M21.8204389,17.3853967 C19.9082973,16.1378195 17.4086867,16.4718033 15.882669,18.0611854 L9.25739469,13.7388439 C9.29987257,13.487722 9.3232354,13.2302585 9.32366018,12.9670878 C9.3232354,12.7007463 9.2992354,12.4401122 9.25548319,12.1858195 L15.882669,7.86242114 C17.4086867,9.45180325 19.9082973,9.78578699 21.8204389,8.53842114 C23.9751292,7.1325187 24.5791646,4.2441935 23.1667752,2.09951057 C21.7541735,-0.0449609756 18.852085,-0.646131707 16.6973947,0.75955935 C14.7852531,2.00713659 14.0956248,4.42154309 14.9511292,6.4482748 L8.64550088,10.5619821 C7.82482832,9.22033984 6.34150088,8.32238862 4.65130619,8.32238862 C4.51983717,8.32238862 4.39027965,8.32915285 4.26157168,8.33993333 C4.24415575,8.34120163 4.22673982,8.34204715 4.20932389,8.34373821 C4.0952708,8.3545187 3.98270442,8.37079512 3.87098761,8.38939675 C3.83530619,8.39552683 3.79983717,8.40165691 3.76458053,8.40842114 C3.66539469,8.42744553 3.56748319,8.44985203 3.47063363,8.4750065 C3.42348319,8.48747805 3.37675752,8.5010065 3.33024425,8.51474634 C3.26397876,8.5341935 3.19877522,8.55575447 3.13378407,8.57794959 C3.05583717,8.60479512 2.97873982,8.63354309 2.90291681,8.66440488 C2.86574867,8.67941301 2.82900531,8.69505528 2.79226195,8.71090894 C2.67948319,8.76037236 2.56861593,8.81342927 2.46050973,8.8709252 C2.4511646,8.87599837 2.44139469,8.88086016 2.43204956,8.88614472 C0.983129204,9.67290894 -2.12389376e-05,11.2028927 -2.12389376e-05,12.9613805 C-2.12389376e-05,15.5239659 2.0871292,17.6012179 4.66192566,17.6012179 C6.35254513,17.6012179 7.83289912,16.7053805 8.65017345,15.3647951 L14.9511292,19.4753317 C14.0956248,21.5020634 14.7852531,23.9164699 16.6973947,25.1640472 C18.852085,26.5697382 21.7541735,25.9685675 23.1667752,23.8238846 C24.5791646,21.679413 23.9751292,18.7910878 21.8204389,17.3853967" id="Fill-1" fill="#ffffff" mask="url(#mask-2)"></path>
        </g>
    </g>
</svg>