<?xml version="1.0" encoding="UTF-8"?>
<svg width="40px" height="40px" viewBox="0 0 40 40" version="1.1" xmlns="http://www.w3.org/2000/svg" xmlns:xlink="http://www.w3.org/1999/xlink">
    <title>icon-fb</title>
    <g id="icon-fb" stroke="none" stroke-width="1" fill="none" fill-rule="evenodd">
        <g id="Group-5" transform="translate(8.000000, 8.000000)">
            <path d="M10.0979526,11.9246211 C9.69200526,11.9246211 9.31874211,11.9266737 8.94547895,11.9239895 C8.64200526,11.9217789 8.61516316,11.8924105 8.61453158,11.5832526 C8.61326842,10.9791474 8.62084737,10.3748842 8.60868947,9.77093684 C8.60411053,9.5412 8.67216316,9.44188421 8.91516316,9.45577895 C9.20805789,9.47251579 9.50426842,9.44077895 9.79605789,9.46541053 C10.0592684,9.48751579 10.1049,9.38077895 10.1036368,9.14488421 C10.0993737,8.45156842 10.0916368,7.7562 10.1380579,7.06525263 C10.2165316,5.89477895 11.2977947,4.85030526 12.4690579,4.81114737 C13.3497947,4.78177895 14.2321105,4.80356842 15.1136368,4.79741053 C15.2923737,4.79614737 15.3590053,4.86798947 15.3574263,5.04609474 C15.3519,5.69093684 15.3519,6.33593684 15.3593717,6.98077895 C15.3615316,7.17009474 15.2915842,7.24604211 15.1017947,7.24288421 C14.6855842,7.23625263 14.2692158,7.23893684 13.8528474,7.24209474 C13.3158474,7.24635789 13.0553211,7.50735789 13.0535842,8.03914737 C13.0524789,8.43088421 13.0629,8.82309474 13.0496368,9.21451579 C13.0428474,9.41330526 13.1176895,9.46604211 13.3055842,9.46304211 C13.8605842,9.45372632 14.4157421,9.45956842 14.9709,9.46130526 C15.3151105,9.46241053 15.3291632,9.46872632 15.3062684,9.80046316 C15.2626895,10.4348842 15.2055316,11.0685158 15.1559526,11.7026211 C15.1415842,11.8867263 15.0228474,11.9254105 14.8676368,11.9250947 C14.3533737,11.9239895 13.8387947,11.9347263 13.3250053,11.9197263 C13.1099526,11.9134105 13.0480579,11.9765684 13.0488474,12.1932 C13.0557947,14.4136737 13.0524789,16.6341474 13.0515316,18.8546211 C13.0513737,19.1904632 13.0504263,19.1937789 12.7062158,19.1947263 C11.9552684,19.1967789 11.2041632,19.1966211 10.4532158,19.1942526 C10.1180053,19.1931474 10.1000053,19.1737263 10.0998474,18.8266737 C10.0985842,16.6470947 10.0984263,14.4673579 10.0979526,12.2877789 C10.0979526,12.1821474 10.0979526,12.0766737 10.0979526,11.9246211" id="Fill-1" fill="#ffffff"></path>
            <path d="M12,1.26309474 C6.07973684,1.26309474 1.26315789,6.07967368 1.26315789,11.9999368 C1.26315789,17.9202 6.07973684,22.7367789 12,22.7367789 C17.9202632,22.7367789 22.7368421,17.9202 22.7368421,11.9999368 C22.7368421,6.07967368 17.9202632,1.26309474 12,1.26309474 M12,23.9999368 C5.38310526,23.9999368 0,18.6166737 0,11.9999368 C0,5.3832 5.38310526,-6.31578949e-05 12,-6.31578949e-05 C18.6168947,-6.31578949e-05 24,5.3832 24,11.9999368 C24,18.6166737 18.6168947,23.9999368 12,23.9999368" id="Fill-3" fill="#ffffff"></path>
        </g>
    </g>
</svg>