<?xml version="1.0" encoding="UTF-8"?>
<svg width="40px" height="40px" viewBox="0 0 40 40" version="1.1" xmlns="http://www.w3.org/2000/svg" xmlns:xlink="http://www.w3.org/1999/xlink">
    <title>icon-textseize</title>
    <defs>
        <polygon id="path-1" points="0 0 27 0 27 21 0 21"></polygon>
    </defs>
    <g id="icon-textseize" stroke="none" stroke-width="1" fill="none" fill-rule="evenodd">
        <g id="Group-3" transform="translate(7.000000, 10.000000)">
            <mask id="mask-2" fill="white">
                <use xlink:href="#path-1"></use>
            </mask>
            <g id="Clip-2"></g>
            <path d="M14.8019583,11.777587 L18.4027494,2.9191429 L22.0037317,11.777587 L14.8019583,11.777587 Z M4.22323659,13.6794087 L6.59260569,7.85075407 L8.96197479,13.6794087 L4.22323659,13.6794087 Z M26.9254054,19.7186053 L19.1172876,0.509780499 C18.985964,0.18680006 18.7107005,0.000671942661 18.4243499,0.00134388532 C18.417086,0.000895923548 18.4100133,0.000447961774 18.4025582,0 C18.3952943,0.000447961774 18.3882216,0.000895923548 18.3809577,0.00134388532 C18.0946072,0.000671942661 17.8195348,0.18680006 17.6884023,0.509780499 L11.4953551,15.7449604 L7.30083583,5.42638495 C7.17257066,5.11079588 6.90667374,4.92690757 6.6275871,4.91929222 C6.61592663,4.91817232 6.60426616,4.91727639 6.59260569,4.91705241 C6.58075407,4.91727639 6.56928475,4.91817232 6.55743313,4.91929222 C6.27834649,4.92690757 6.01264072,5.11079588 5.88437556,5.42638495 L0.0745945888,19.7186053 C-0.107194037,20.1652232 0.0547144447,20.6998656 0.436069133,20.9126475 C0.542160286,20.9720024 0.654177252,21 0.764282666,21 C1.05005974,21 1.32417634,20.8114081 1.45511767,20.4890996 L3.49493516,15.4712558 L9.69027623,15.4712558 L10.6485374,17.8284306 L9.88009337,19.7186053 C9.6984959,20.1652232 9.86040438,20.6998656 10.2417591,20.9126475 C10.3478502,20.9720024 10.4598672,21 10.5699726,21 C10.8557497,21 11.1298663,20.8114081 11.2608076,20.4890996 L12.0835397,18.4649843 C12.1793085,18.3388831 12.2408605,18.1836643 12.2647549,18.0192624 L14.0753772,13.5649545 C14.0879935,13.5658504 14.0998451,13.5694341 14.1124614,13.5694341 L22.7320331,13.5694341 L25.5448823,20.4890996 C25.6758237,20.8114081 25.9499403,21 26.2357173,21 C26.3458227,21 26.4578397,20.9720024 26.5639309,20.9126475 C26.9452856,20.6998656 27.107194,20.1652232 26.9254054,19.7186053 L26.9254054,19.7186053 Z" id="Fill-1" fill="#ffffff" mask="url(#mask-2)"></path>
        </g>
    </g>
</svg>