<?xml version="1.0" encoding="UTF-8"?>
<svg width="40px" height="40px" viewBox="0 0 40 40" version="1.1" xmlns="http://www.w3.org/2000/svg" xmlns:xlink="http://www.w3.org/1999/xlink">
    <title>icon-line</title>
    <g id="icon-line" stroke="none" stroke-width="1" fill="none" fill-rule="evenodd">
        <g id="Group-11" transform="translate(8.000000, 9.000000)">
            <path d="M11.6503579,1.39038108 C11.5324105,1.40265811 11.3920421,1.41509054 11.2350947,1.42892162 C10.7773579,1.46901622 10.2076737,1.51905676 9.64493684,1.61898243 C7.06272632,2.07727297 5.01530526,3.13449595 3.38567368,4.85094865 C2.15330526,6.14905 1.45035789,7.63286081 1.29688421,9.26119865 C1.12035789,11.1341446 1.64835789,12.8661378 2.86667368,14.4090027 C4.32309474,16.2535095 6.30735789,17.4560365 8.93283158,18.0854284 C9.16193684,18.1402865 9.39751579,18.1816243 9.64698947,18.2251378 C9.93262105,18.2748676 10.2278842,18.3264622 10.5244105,18.4019892 C11.5458316,18.661827 11.9465684,19.2422662 11.8240421,20.2841041 C11.7937263,20.5408338 11.7548842,20.7955432 11.7171474,21.0418608 C11.6917263,21.2089216 11.6670947,21.3697662 11.6453053,21.529523 C11.8003579,21.4771514 11.9443579,21.4156108 12.0754105,21.345523 C14.0546211,20.2867459 16.0240421,18.9704622 18.0962526,17.3216108 C19.4869895,16.2148135 20.4998842,15.2023473 21.2836737,14.1351784 C22.6082526,12.3316986 23.0284105,10.3686176 22.5319895,8.30079324 C22.1162526,6.56848919 21.1395158,5.1227527 19.5462,3.88044189 C17.4408316,2.23920541 14.9309368,1.44741486 11.6503579,1.39038108 M11.3590421,22.8532662 C11.0252526,22.8532662 10.8062526,22.7174419 10.6920947,22.6198473 C10.5400421,22.4899284 10.2946737,22.1887527 10.3592526,21.6324014 C10.3898842,21.3696108 10.4296737,21.1091514 10.4680421,20.8572392 C10.5057789,20.6101446 10.5414632,20.3768811 10.5692526,20.1409757 C10.6199368,19.7103473 10.6122,19.7084824 10.2084632,19.6057595 C9.95914737,19.5423541 9.70035789,19.4971311 9.42641053,19.4492662 C9.16841053,19.4041986 8.90172632,19.357577 8.63377895,19.2933946 C5.72030526,18.5948473 3.50772632,17.2467054 1.86925263,15.1720432 C0.447568421,13.3713608 -0.168063158,11.3440973 0.0390947368,9.14635405 C0.219252632,7.23704324 1.03462105,5.50629324 2.46277895,4.00212432 C4.25962105,2.10944189 6.60072632,0.895881081 9.42072632,0.395475676 C10.0390421,0.285759459 10.6655684,0.230745946 11.1228316,0.190495946 C11.2876737,0.176198649 11.4329368,0.1633 11.5507263,0.150401351 L11.5908316,0.145894595 L11.6312526,0.146671622 C15.2233579,0.202617568 17.9876211,1.07941486 20.3304632,2.90589459 C22.1299895,4.30873919 23.2843579,6.02767838 23.7613579,8.0148473 C24.3457263,10.4502054 23.8565684,12.7544014 22.3073053,14.8635635 C21.4562526,16.0222662 20.3705684,17.1104149 18.8904632,18.2882324 C16.7579368,19.9852595 14.7259895,21.3425703 12.6787263,22.4378676 C12.3897789,22.5924959 12.0651474,22.7165095 11.7141474,22.8061784 C11.5838842,22.8395905 11.4656211,22.8532662 11.3590421,22.8532662" id="Fill-1" fill="#ffffff"></path>
            <path d="M14.0355474,10.7161818 C14.0159684,10.7208439 13.9963895,10.7255061 13.9768105,10.7303236 C13.8119684,10.5105804 13.6464947,10.2913034 13.4822842,10.0712493 C12.8843368,9.27028986 12.2890737,8.46762095 11.6878105,7.66930338 C11.4928105,7.41039797 11.2521789,7.3277223 11.0012842,7.41039797 C10.7535474,7.49198581 10.5853895,7.70939797 10.5846,7.98772905 C10.5809684,9.50153311 10.5808105,11.0154926 10.5849158,12.5292966 C10.5857053,12.7969047 10.7510211,13.0130736 10.9850211,13.0960601 C11.3917579,13.2404318 11.7863368,12.9495128 11.7893368,12.4913777 C11.7945474,11.6677291 11.7907579,10.843925 11.7907579,10.0202764 C11.7907579,9.94303986 11.7907579,9.86564797 11.7907579,9.78841149 C11.8976526,9.85663446 11.9603368,9.93604662 12.0206526,10.0171682 C12.7149158,10.9506885 13.4080737,11.8849858 14.1029684,12.8181953 C14.3137579,13.1013439 14.5384421,13.1885264 14.8188632,13.1030534 C15.0997579,13.017425 15.2436,12.7976818 15.2437579,12.4472426 C15.2445474,11.4602628 15.2442316,10.4732831 15.2440737,9.48630338 C15.2439158,8.97424257 15.2494421,8.46202635 15.2404421,7.95012095 C15.2352316,7.65671554 15.0163895,7.43060068 14.7268105,7.38895203 C14.4506526,7.34916824 14.1710211,7.50379662 14.0857579,7.77000608 C14.0437579,7.90116824 14.0383895,8.04740473 14.0376,8.18695878 C14.0333368,8.95124257 14.0355474,9.71568176 14.0355474,10.4799655 C14.0355474,10.5587561 14.0355474,10.6373912 14.0355474,10.7161818" id="Fill-3" fill="#ffffff"></path>
            <path d="M17.2862368,11.9412736 L17.2862368,10.8521926 C17.3817632,10.8521926 17.4635526,10.8521926 17.5451842,10.8521926 C18.0048158,10.8520372 18.4644474,10.8551453 18.9240789,10.8509493 C19.3055526,10.8475304 19.5793421,10.5957736 19.5787105,10.2588547 C19.5782368,9.91603041 19.3085526,9.66598311 18.9292895,9.66318581 C18.5527105,9.66023311 18.1758158,9.66240878 17.7990789,9.66240878 C17.6287105,9.66240878 17.4581842,9.66240878 17.2903421,9.66240878 L17.2903421,8.56524662 C17.8423421,8.56524662 18.3765,8.56586824 18.9106579,8.56493581 C19.3014474,8.56415878 19.5682895,8.33369257 19.5787105,7.99086824 C19.5886579,7.65783446 19.3162895,7.38261149 18.9422368,7.37841554 C18.1965,7.37002365 17.4502895,7.37017905 16.7045526,7.37841554 C16.3134474,7.3829223 16.0740789,7.62706419 16.0731316,8.01448986 C16.0693421,9.50544932 16.0693421,10.9964088 16.0729737,12.4872128 C16.0740789,12.8949966 16.3240263,13.135098 16.7385,13.1369628 C17.4542368,13.1400709 18.1701316,13.1392939 18.8858684,13.1371182 C19.2919737,13.135875 19.5806053,12.8805439 19.5783947,12.5316588 C19.5763421,12.1774899 19.2971842,11.9420507 18.8767105,11.9414291 C18.3509211,11.9408074 17.8249737,11.9412736 17.2862368,11.9412736" id="Fill-5" fill="#ffffff"></path>
            <path d="M5.63802632,11.9413203 C5.63802632,11.5047865 5.63802632,11.1044622 5.63802632,10.7042932 C5.63802632,9.80682703 5.64197368,8.90936081 5.63581579,8.01205 C5.63328947,7.65244189 5.37355263,7.38716486 5.04181579,7.37846216 C4.71165789,7.36991486 4.42697368,7.63519189 4.42555263,7.98749595 C4.41955263,9.50052297 4.41955263,11.0133946 4.42571053,12.5264216 C4.42713158,12.8770162 4.68671053,13.1306378 5.04418421,13.1346784 C5.80492105,13.1435365 6.56613158,13.1435365 7.32686842,13.134523 C7.65844737,13.1306378 7.90444737,12.8896041 7.92892105,12.582523 C7.95686842,12.2308405 7.68434211,11.9452054 7.30744737,11.9424081 C6.75939474,11.9382122 6.21134211,11.9413203 5.63802632,11.9413203" id="Fill-7" fill="#ffffff"></path>
            <path d="M8.50158947,10.2388696 C8.50158947,10.9725385 8.50095789,11.7063628 8.50190526,12.4400318 C8.50237895,12.8481264 8.74869474,13.1342277 9.09906316,13.1370432 C9.45258947,13.1396669 9.70885263,12.8549642 9.70916842,12.4513764 C9.71043158,10.9838831 9.71058947,9.51654527 9.70916842,8.04905203 C9.70869474,7.65556554 9.4608,7.38096419 9.11090526,7.37703907 C8.75343158,7.37319392 8.50253684,7.65276824 8.50190526,8.05993041 C8.5008,8.78629527 8.50158947,9.51250473 8.50158947,10.2388696" id="Fill-9" fill="#ffffff"></path>
        </g>
    </g>
</svg>